<?xml version="1.0" encoding="utf-8"?>
<!-- Generator: Adobe Illustrator 16.0.3, SVG Export Plug-In . SVG Version: 6.00 Build 0)  -->
<!DOCTYPE svg PUBLIC "-//W3C//DTD SVG 1.1//EN" "http://www.w3.org/Graphics/SVG/1.1/DTD/svg11.dtd">
<svg version="1.1" id="Layer_1" xmlns="http://www.w3.org/2000/svg" xmlns:xlink="http://www.w3.org/1999/xlink" x="0px" y="0px"
	 width="620.184px" height="447px" viewBox="0 0 620.184 447" enable-background="new 0 0 620.184 447" xml:space="preserve">
<g>
	<rect x="434.173" y="341.443" fill="#FFFFFF" width="18.337" height="27.379"/>
	<g>
		<path fill="#FFFFFF" d="M292.799,355.754c-1.473-2.318-3.147-3.84-2.864-4.764c0.462-1.514,2.197-2.639,3.395-3.928
			c1.017,1.123,2.967,2.367,2.84,3.342C295.964,351.98,294.395,353.381,292.799,355.754"/>
		<path fill="#FFFFFF" d="M284.712,388.086c-1.456-2.395-3.091-3.891-2.889-5.07c0.224-1.295,2.142-2.297,3.319-3.428
			c1.097,1.223,2.974,2.393,3.061,3.684C288.283,384.477,286.464,385.811,284.712,388.086"/>
		<path fill="#231F20" d="M377.446,344.844c-14.901-1.348-22.863-11.982-22.636-26.301c0.017-1.092,2.019-3.1,2.938-3.012
			c1.377,0.133,3.049,1.498,3.785,2.799c0.757,1.334,0.489,3.225,0.754,4.859c1.959,12.178,12.309,16.863,22.743,10.521
			c1.253-0.762,3.44,0.014,5.195,0.078c-0.203,1.793,0.226,4.615-0.723,5.199C385.717,341.318,381.502,342.951,377.446,344.844"/>
		<path fill="#231F20" d="M395.363,361.158c0.084-8.467,7.255-16.986,15.665-18.236c1.129-0.168,3.674,1.668,3.574,2.045
			c-0.483,1.807-1.242,4.35-2.641,4.971c-7.565,3.354-9.473,5.611-9.624,13.148c-0.044,2.158,0.487,4.516-2.923,4.564
			c-3.163,0.045-3.938-1.889-4.048-4.494C395.34,362.492,395.363,361.824,395.363,361.158"/>
		<path fill="#69AF3D" d="M147.381,210.282c0.722-1.923-0.552-4.134-2.328-5.166c-1.777-1.032-3.914-1.176-5.965-1.295
			c-9.553-0.558-19.492-1.055-28.322,2.63c-6.441,2.689-11.807,7.423-16.678,12.422c-9.33,9.571-17.336,20.433-23.719,32.178
			c-0.844-1.054-1.688-2.106-2.533-3.16c-4.742,16.616-7.984,34.006-5.835,51.15c2.148,17.145,10.296,34.133,24.538,43.916
			c4.273,2.934,8.986,5.168,13.769,7.17c14.536,6.088,29.92,10.15,45.567,12.031c1.932-3.545-1.475-8.578,1.008-11.764
			c0.768-0.984,1.948-1.535,3.086-2.043c15.332-6.844,31.273-12.32,47.575-16.34c0.992-0.244,2.05-0.521,2.729-1.283
			c0.691-0.777,0.836-1.891,0.865-2.932c0.182-6.373-2.734-12.373-5.504-18.117c-9.041-18.762-17.412-39.469-13.275-59.881
			c1.814-8.946,5.965-17.295,7.73-26.252c-12.895-7.704-27.645-12.277-42.636-13.22"/>
		<path fill="#69AF3D" d="M343.302,132.063c1.505,3.036-0.828,6.83-3.931,8.191c-3.104,1.361-6.648,1.007-10.028,0.764
			c-24.939-1.788-49.802,3.92-74.8,4.448c-1.012,0.021-2.058,0.028-2.99-0.364c-2.986-1.252-3.041-5.457-2.233-8.593
			c2.616-10.158,8.928-19.113,11.173-29.359c2.305-10.521,0.12-21.526-3.262-31.752c-3.383-10.225-7.961-20.062-10.642-30.493
			c11.944-3.652,24.624-3.892,37.112-4.101c8.682-0.146,17.523-0.271,25.848,2.196c13.725,4.068,24.701,14.96,31.423,27.601
			s9.621,26.957,11.307,41.173c-4.066,0.216-7.887,2.989-9.352,6.788c-1.465,3.801-0.495,8.419,2.375,11.31"/>
		<path fill="#A1C077" d="M495.408,299.674c-1.092,12.902-7.674,24.605-14.106,35.844c-4.491,7.852-9.063,15.805-15.464,22.195
			c-14.14,14.111-35.145,18.674-55.064,20.18c-6.434,0.486-12.986,0.713-19.265-0.781c-4.663-1.111-9.049-3.143-13.374-5.211
			c-9.686-4.631-19.325-9.553-27.764-16.189c-8.439-6.635-15.686-15.143-19.317-25.244c-1.573-4.377-2.44-9.223-1.066-13.666
			c1.773-5.738,6.858-9.715,11.667-13.311c12.601-9.428,25.202-18.855,37.805-28.283c1.583-1.182,3.184-2.377,5.003-3.15
			c3.901-1.656,8.333-1.197,12.548-0.754c28.208,2.979,56.619,4.053,84.971,3.213c0.088,5.166,0.175,10.33,0.263,15.494
			c0.018,1.088,0.047,2.225,0.566,3.184c1.87,3.461,7.311,1.486,10.924,3.045c0.346,0.973,0.691,1.945,1.036,2.918"/>
		<path fill="#69AF3D" d="M520.384,195.413c0,46.843-37.974,84.816-84.815,84.816c-46.844,0-84.817-37.973-84.817-84.816
			c0-46.843,37.974-84.816,84.817-84.816C482.41,110.597,520.384,148.569,520.384,195.413"/>
		<path fill-rule="evenodd" clip-rule="evenodd" fill="#69AF3D" d="M394.037,227.026c0,46.347-37.57,83.917-83.918,83.917
			c-46.346,0-83.918-37.57-83.918-83.917c0-46.346,37.572-83.918,83.918-83.918C356.467,143.108,394.037,180.68,394.037,227.026"/>
		<path fill-rule="evenodd" clip-rule="evenodd" fill="#69AF3D" d="M183.516,182.226c23.214-1.754,45.496-13.563,59.98-31.79
			c14.484-18.227,20.953-42.601,17.417-65.612c-3.738-24.315-18.858-46.864-40.481-58.596c-9.607-5.212-20.233-8.293-30.942-10.481
			c-26.087-5.329-56.567-4.208-74.942,15.061c-10.609,11.125-15.348,26.453-19.631,41.218c-1.301,4.484-2.604,9.115-2.078,13.755
			c0.604,5.331,3.547,10.069,6.415,14.604c11.006,17.396,22.776,35.526,40.862,45.358c8.752,4.76,18.543,7.298,27.48,11.702
			c8.935,4.405,17.43,11.388,19.879,21.044"/>
	</g>
	<g>
		<path fill="#D36824" d="M175.701,270.609v-0.002l0.002-0.412h0.004c0.151-18.061,5.266-34.929,14.021-49.342
			c-18.464-12.956-42.61-17.37-65.565-9.772c-38.589,12.775-59.555,54.622-46.807,93.13c12.773,38.59,54.566,59.662,93.156,46.887
			c10.992-3.639,20.553-9.656,28.318-17.287c-14.424-16.902-23.135-38.828-23.135-62.793
			C175.695,270.873,175.699,270.738,175.701,270.609"/>
		<path fill="#A1C077" d="M4.512,180.858v22.637c53.473-0.099,96.813-43.367,97.035-96.811H78.91
			C78.689,147.627,45.483,180.76,4.512,180.858"/>
		<path fill="#A1C077" d="M4.512,180.858h-0.42v23.057h0.421c53.704-0.099,97.232-43.553,97.454-97.229l0.002-0.423H78.492
			l-0.002,0.417c-0.22,40.712-33.24,73.66-73.979,73.756l-0.419,0.001v0.419H4.512l0.001,0.421
			c41.203-0.1,74.596-33.419,74.819-74.592l-0.422-0.002v0.42h22.637v-0.42l-0.42-0.002c-0.221,53.213-43.374,96.294-96.616,96.392
			l0.001,0.42h0.42v-22.637H4.512l0.001,0.421L4.512,180.858z"/>
		<path fill="#A1C077" d="M272.984,343.961c-40.713-0.221-73.658-33.24-73.757-73.98l-0.001-0.42h-0.23
			c0.223-11.437,3.062-22.231,7.941-31.814c-4.814-6.606-10.65-12.29-17.211-16.893c-8.754,14.412-13.867,31.282-14.019,49.342
			h-0.005l-0.002,0.41v0.004c-0.001,0.129-0.006,0.264-0.006,0.408c0,23.965,8.711,45.891,23.135,62.793
			c0.15-0.148,0.293-0.303,0.442-0.453c17.825,20.766,44.223,33.959,73.708,34.08l0.422,0.002v-23.477L272.984,343.961z"/>
		<path fill="#A1C077" d="M307.857,348.529h-21.796c-0.126,41.041-33.212,74.318-74.177,74.762v21.799
			C264.889,444.646,307.731,401.609,307.857,348.529"/>
		<path fill="#A1C077" d="M285.222,348.293L285.222,348.293 M286.062,348.529h21.796c-0.126,53.08-42.969,96.117-95.973,96.561
			v-21.799C252.851,422.848,285.936,389.57,286.062,348.529 M308.689,347.688h-23.477l0.009,0.605h0.417h-0.417
			c0,40.824-32.987,73.939-73.759,74.162l-0.418,0.002v23.477l0.422-0.002c53.736-0.223,97.23-43.85,97.23-97.639v-0.006
			l-0.002-0.184L308.689,347.688"/>
		<path fill="#69AF3D" d="M275.525,16.193"/>
		<path fill="#A1C077" d="M274.355,15.772v0.421h0.42v0.42v-0.42h-0.42v23.058l0.418,0.001
			c40.879,0.097,73.985,33.264,73.985,74.164c0,0.129-0.004,0.264-0.005,0.408l-0.002,0.423h23.479v-0.42
			c0-0.127,0.005-0.264,0.005-0.411c0-53.866-43.616-97.544-97.46-97.643L274.355,15.772"/>
		<path fill="#A1C077" d="M487.712,48.549v21.798c41.146,0.322,74.399,33.77,74.403,74.992h21.797
			C583.907,92.081,540.894,48.873,487.712,48.549"/>
		<path fill="#A1C077" d="M487.292,48.126L487.292,48.126 M487.711,70.347V48.549c53.183,0.323,96.195,43.533,96.2,96.791h-21.796
			C562.111,104.117,528.858,70.669,487.711,70.347 M486.871,47.706v0.42h0.421l-0.001,0.42l0.001-0.42h-0.421v23.058l0.42,0.001
			c40.876,0.097,73.984,33.263,73.984,74.164c0,0.129-0.005,0.264-0.005,0.407l-0.003,0.423h23.48v-0.419
			c-0.002-0.127,0.004-0.264,0.004-0.411c0-53.867-43.616-97.544-97.46-97.643L486.871,47.706"/>
		<path fill="#A1C077" d="M147.611,207.244c0.129,0,0.264,0.004,0.406,0.005l0.421,0.002v-23.378h-0.419h-0.004
			c-0.124,0-0.26-0.006-0.404-0.006c-53.496,0-96.896,43.206-97.221,96.627h-0.006l-0.002,0.6c0,0.031,0.002,0.061,0.002,0.09v0.146
			h0.002c0.127,53.504,43.691,96.992,97.225,96.992l0.827-0.006v-23.383l-0.827,0.01c-40.703,0-73.82-33.1-73.848-73.877v-0.152
			C73.861,240.21,106.885,207.244,147.611,207.244"/>
		<path fill="#A1C077" d="M444.436,410.273v22.637c53.472-0.1,96.814-43.367,97.034-96.811h-22.636
			C518.613,377.043,485.406,410.174,444.436,410.273"/>
		<path fill="#A1C077" d="M518.459,320.379h22.639c0.098-41.109,33.451-74.404,74.585-74.404c0.137,0,0.272,0.004,0.408,0.005
			v-22.637c-0.136,0-0.271-0.005-0.408-0.005C562.047,223.338,518.558,266.767,518.459,320.379"/>
		<path fill="#A1C077" d="M508.28,291.807h-21.796c-0.126,41.041-33.211,74.316-74.176,74.762l-0.916,0.006
			c-32.02-0.035-59.335-20.131-70.062-48.396c-6.716,2.645-13.795,4.561-21.142,5.662c4.861,13.75,12.735,26.076,22.837,36.18
			c17.518,17.516,41.713,28.352,68.441,28.354l0.966-0.008v-0.002C465.379,387.852,508.154,344.844,508.28,291.807"/>
		<path fill="#D36824" d="M304.99,129.647l0.414-0.006h0.001l0.184-0.002h0.004c13.906,0,27.128,2.912,39.1,8.152
			c5.495-15.178,6.159-32.225,0.709-48.687c-12.533-37.864-52.944-58.997-90.96-48.208c11.801,16.034,18.823,35.803,18.953,57.209
			h0.001l0.005,0.415l0.004,0.185v0.004c0,0.048-0.003,0.095-0.003,0.143v0.094H273.4c-0.033,14.083-3.058,27.46-8.457,39.542
			C277.149,132.892,290.705,129.736,304.99,129.647z"/>
		<path fill-rule="evenodd" clip-rule="evenodd" fill="#D36824" d="M329.064,298.389c38.912-12.881,60.176-55.188,47.268-94.18
			c-12.879-38.911-55.188-60.176-94.1-47.296c-38.992,12.908-60.176,55.19-47.295,94.101
			C247.846,290.006,290.073,311.297,329.064,298.389"/>
		<path fill="#D36824" d="M506.474,168.555c-12.875-38.891-55.16-60.147-94.053-47.272c-18.118,5.998-32.383,18.347-41.175,33.749
			c0.248,0.226,0.502,0.446,0.747,0.673c19.023,17.657,31,42.801,31.232,70.749h0.004l0.003,0.415v0.003
			c0.002,0.13,0.006,0.267,0.006,0.413c0,9.944-1.499,19.536-4.263,28.575c-0.064,0.212-0.137,0.419-0.203,0.63
			c17.74,10.195,39.561,13.113,60.457,6.196C498.121,249.812,519.374,207.526,506.474,168.555"/>
		<g opacity="0.2">
			<g>
				<defs>
					<rect id="SVGID_1_" x="391.601" y="272.402" width="0.591" height="1.094"/>
				</defs>
				<clipPath id="SVGID_2_">
					<use xlink:href="#SVGID_1_"  overflow="visible"/>
				</clipPath>
				<path clip-path="url(#SVGID_2_)" fill="#D36824" d="M391.601,273.496c0.196-0.365,0.399-0.727,0.59-1.094
					C391.999,272.77,391.797,273.131,391.601,273.496"/>
			</g>
		</g>
		<g opacity="0.2">
			<g>
				<defs>
					<rect id="SVGID_3_" x="393.218" y="269.854" width="0.256" height="0.51"/>
				</defs>
				<clipPath id="SVGID_4_">
					<use xlink:href="#SVGID_3_"  overflow="visible"/>
				</clipPath>
				<path clip-path="url(#SVGID_4_)" fill="#D36824" d="M393.218,270.363c0.084-0.172,0.173-0.34,0.256-0.512
					C393.391,270.023,393.303,270.191,393.218,270.363"/>
			</g>
		</g>
		<g opacity="0.2">
			<g>
				<defs>
					<rect id="SVGID_5_" x="389.381" y="274.926" width="1.446" height="2.494"/>
				</defs>
				<clipPath id="SVGID_6_">
					<use xlink:href="#SVGID_5_"  overflow="visible"/>
				</clipPath>
				<path clip-path="url(#SVGID_6_)" fill="#D36824" d="M390.827,274.926c-0.471,0.838-0.952,1.67-1.447,2.494
					C389.875,276.596,390.357,275.764,390.827,274.926"/>
			</g>
		</g>
		<g opacity="0.2">
			<g>
				<defs>
					<rect id="SVGID_7_" x="394.6" y="267.268" width="0.081" height="0.176"/>
				</defs>
				<clipPath id="SVGID_8_">
					<use xlink:href="#SVGID_7_"  overflow="visible"/>
				</clipPath>
				<path clip-path="url(#SVGID_8_)" fill="#D36824" d="M394.6,267.444c0.027-0.059,0.055-0.117,0.082-0.176
					C394.654,267.327,394.627,267.385,394.6,267.444"/>
			</g>
		</g>
		<g opacity="0.7">
			<g>
				<defs>
					<rect id="SVGID_9_" x="393.474" y="267.444" width="1.126" height="2.41"/>
				</defs>
				<clipPath id="SVGID_10_">
					<use xlink:href="#SVGID_9_"  overflow="visible"/>
				</clipPath>
				<path clip-path="url(#SVGID_10_)" fill="#FFFFFF" d="M393.474,269.854c0.388-0.799,0.762-1.601,1.126-2.41
					C394.235,268.252,393.861,269.055,393.474,269.854"/>
			</g>
		</g>
		<path fill="#D36824" d="M436.925,290.086l-0.336,0.004h-0.003c-0.131,0-0.268,0.004-0.412,0.004
			c-17.166,0-33.293-4.436-47.308-12.213c-10.874,18.131-27.454,32.445-47.271,40.441c-0.26,0.105-0.518,0.215-0.779,0.318
			c-0.218,0.084-0.438,0.162-0.655,0.246c14.184,37.551,55.734,57.693,94.187,44.965c36.479-12.076,57.608-49.701,50.146-86.547
			c-14.025,8.004-30.222,12.637-47.49,12.781H436.925z"/>
		<g opacity="0.7">
			<g>
				<defs>
					<rect id="SVGID_11_" x="390.827" y="273.496" width="0.773" height="1.43"/>
				</defs>
				<clipPath id="SVGID_12_">
					<use xlink:href="#SVGID_11_"  overflow="visible"/>
				</clipPath>
				<path clip-path="url(#SVGID_12_)" fill="#FFFFFF" d="M390.827,274.926c0.265-0.475,0.516-0.953,0.773-1.432
					C391.343,273.973,391.092,274.451,390.827,274.926"/>
			</g>
		</g>
		<g opacity="0.7">
			<g>
				<defs>
					<rect id="SVGID_13_" x="392.191" y="270.363" width="1.026" height="2.039"/>
				</defs>
				<clipPath id="SVGID_14_">
					<use xlink:href="#SVGID_13_"  overflow="visible"/>
				</clipPath>
				<path clip-path="url(#SVGID_14_)" fill="#FFFFFF" d="M392.191,272.402c0.351-0.672,0.689-1.355,1.026-2.037
					C392.881,271.047,392.542,271.729,392.191,272.402"/>
			</g>
		</g>
		<path fill="#A1C077" d="M534.329,191.8L534.329,191.8l-0.006-0.415c-0.325-53.369-43.465-96.586-96.805-97.032V94.35h-0.418
			h-0.057c-0.111-0.001-0.229-0.005-0.355-0.005c-35.595,0-66.733,19.05-83.794,47.506c6.927,3.844,13.336,8.504,19.099,13.854
			c12.704-22.605,36.907-37.88,64.686-37.883v0.003l0.417,0.002h0.001l0.12,0.001c40.517,0.283,73.313,33.049,73.634,73.558h-0.004
			l0.006,0.435l0.002,0.405l0,0c-0.082,26.154-13.713,49.103-34.23,62.242c-11.424,7.316-24.974,11.604-39.527,11.684l-0.418,0.002
			v0.002c-13.768-0.002-26.655-3.758-37.703-10.295c-1.196,3.914-2.636,7.721-4.295,11.408c-0.025,0.059-0.055,0.117-0.081,0.176
			c-0.365,0.807-0.739,1.611-1.126,2.41c-0.083,0.17-0.172,0.34-0.256,0.51c-0.337,0.684-0.675,1.365-1.027,2.039
			c-0.191,0.367-0.394,0.729-0.59,1.092c-0.256,0.479-0.509,0.957-0.772,1.432c-0.472,0.838-0.952,1.67-1.447,2.494
			c14.017,7.777,30.143,12.213,47.308,12.213c0.146,0,0.282-0.004,0.413-0.006h0.002l0.336-0.002h0.079
			c17.269-0.146,33.466-4.777,47.49-12.779c29.46-16.812,49.322-48.511,49.324-84.857v-0.004L534.329,191.8z"/>
		<path fill="#A1C077" d="M403.232,226.871v-0.004l-0.003-0.414h-0.004c-0.026-3.232-0.218-6.424-0.552-9.573
			c-2.551-24.087-13.857-45.56-30.681-61.176c-0.245-0.228-0.499-0.448-0.747-0.673c-5.569-5.064-11.719-9.501-18.352-13.181
			c-2.66-1.477-5.397-2.831-8.202-4.058c-11.971-5.241-25.193-8.153-39.1-8.153h-0.004l-0.183,0.003h-0.002l-0.414,0.005v0.001
			c-14.285,0.087-27.842,3.244-40.047,8.84c5.399-12.083,8.424-25.458,8.457-39.542h0.002l-0.002-0.094
			c0-0.048,0.002-0.095,0.002-0.143v-0.004l-0.002-0.185l-0.006-0.415c-0.129-21.406-7.152-41.175-18.953-57.209
			C236.818,16.955,208.537,1.345,176.59,1.078V1.071h-0.418h-0.003c-0.128,0-0.263-0.005-0.409-0.005
			c-53.867,0-97.545,43.618-97.644,97.46l-0.001,0.421h23.479l0.002-0.419c0.096-40.874,33.258-73.98,74.153-73.985v0.002
			l0.409,0.002c0.002,0,0.006,0,0.008,0h0.004c22.684,0.124,42.947,10.438,56.471,26.588c10.746,12.833,17.238,29.35,17.283,47.388
			v0.011v0.255c-0.027,25.456-12.881,47.905-32.443,61.241c-11.782,8.033-25.998,12.758-41.313,12.841l-0.419,0.002v23.478
			l0.423-0.002c14.366-0.06,27.991-3.235,40.256-8.867c-5.328,11.92-8.35,25.096-8.467,38.971h-0.004l-0.002,0.414v0.004
			c0,0.13-0.006,0.267-0.006,0.412c0,53.727,43.392,97.311,97.041,97.637v0.002l0.416,0.004l0.183,0.002h0.004
			c4.668,0,9.256-0.336,13.748-0.969c0.283-0.039,0.566-0.076,0.85-0.119c7.107-1.066,13.964-2.902,20.485-5.414
			c0.218-0.084,0.438-0.162,0.654-0.248c0.263-0.102,0.521-0.211,0.781-0.316c19.815-7.996,36.396-22.313,47.27-40.441
			c3.912-6.521,7.076-13.537,9.392-20.931c0.066-0.211,0.139-0.418,0.203-0.63c2.764-9.04,4.263-18.632,4.263-28.576
			C403.238,227.138,403.234,227,403.232,226.871 M378.917,238.496c-0.06,0.394-0.14,0.782-0.206,1.174
			c-1.438,8.551-4.326,16.61-8.425,23.901c-3.338,5.937-7.466,11.373-12.249,16.156c-5.971,5.971-12.955,10.924-20.672,14.588
			c-0.273,0.131-0.549,0.26-0.826,0.387c-0.219,0.1-0.441,0.191-0.662,0.291c-6.481,2.902-13.451,4.914-20.758,5.852
			c-0.278,0.033-0.558,0.064-0.836,0.098c-2.774,0.324-5.594,0.5-8.452,0.508v-0.002h-0.411h-0.002l-0.428-0.008v0.006
			c-40.682-0.324-73.561-33.394-73.564-74.152h0.004l0.002-0.415v-0.002l0.004-0.423c0.186-16.906,6.041-32.44,15.735-44.828
			c13.46-17.199,34.33-28.318,57.819-28.504v0.003l0.418-0.005h0.004l0.419-0.001v-0.001c9.702,0.03,18.96,1.934,27.444,5.352
			c3.481,1.403,6.834,3.054,10.03,4.944c7.271,4.303,13.731,9.825,19.131,16.268c0.31,0.37,0.63,0.729,0.933,1.105
			c9.472,11.756,15.428,26.461,16.277,42.521c0.062,1.155,0.101,2.317,0.108,3.486v0.082v0.001l0.003,0.417h0.003
			C379.76,231.101,379.471,234.842,378.917,238.496"/>
		<path fill-rule="evenodd" clip-rule="evenodd" fill="#D36824" d="M199.602,169.795c39.015-12.915,60.334-55.334,47.395-94.428
			c-12.916-39.015-55.336-60.336-94.351-47.422c-39.095,12.941-60.335,55.336-47.42,94.351
			C118.166,161.391,160.507,182.737,199.602,169.795"/>
		<path fill="#FFFFFF" d="M155.264,97.69c0-7.276,0-14.553,0.001-21.83c0-2.765,0.879-3.642,3.681-3.643
			c10.89-0.004,21.777-0.004,32.666-0.001c3.276,0.001,4.052,0.787,4.054,4.085c0.003,4.764,0.03,9.528-0.04,14.291
			c-0.008,0.563-0.523,1.558-0.883,1.595c-1.099,0.115-0.887-0.89-0.887-1.584c-0.012-4.868-0.046-9.738,0.02-14.605
			c0.02-1.481-0.448-2.024-1.984-2.017c-10.994,0.051-21.987,0.051-32.98-0.001c-1.488-0.007-1.848,0.52-1.844,1.929
			c0.042,14.605,0.048,29.211-0.008,43.816c-0.007,1.557,0.51,1.992,1.985,1.987c10.992-0.041,21.987-0.039,32.979-0.002
			c1.344,0.004,1.879-0.415,1.848-1.807c-0.074-3.192-0.063-6.387,0.015-9.579c0.012-0.518,0.542-1.022,0.832-1.533
			c0.318,0.519,0.897,1.031,0.912,1.557c0.084,3.296,0.075,6.596,0.03,9.893c-0.028,2.155-1.061,3.136-3.229,3.138
			c-11.308,0.012-22.615,0.014-33.924,0.006c-2.344-0.001-3.241-0.958-3.243-3.395C155.26,112.559,155.264,105.125,155.264,97.69"/>
		<path fill="none" stroke="#FFFFFF" stroke-miterlimit="10" d="M155.264,97.69c0-7.276,0-14.553,0.001-21.83
			c0-2.765,0.879-3.642,3.681-3.643c10.89-0.004,21.777-0.004,32.666-0.001c3.276,0.001,4.052,0.787,4.054,4.085
			c0.003,4.764,0.03,9.528-0.04,14.291c-0.008,0.563-0.523,1.558-0.883,1.595c-1.099,0.115-0.887-0.89-0.887-1.584
			c-0.012-4.868-0.046-9.738,0.02-14.605c0.02-1.481-0.448-2.024-1.984-2.017c-10.994,0.051-21.987,0.051-32.98-0.001
			c-1.488-0.007-1.848,0.52-1.844,1.929c0.042,14.605,0.048,29.211-0.008,43.816c-0.007,1.557,0.51,1.992,1.985,1.987
			c10.992-0.041,21.987-0.039,32.979-0.002c1.344,0.004,1.879-0.415,1.848-1.807c-0.074-3.192-0.063-6.387,0.015-9.579
			c0.012-0.518,0.542-1.022,0.832-1.533c0.318,0.519,0.897,1.031,0.912,1.557c0.084,3.296,0.075,6.596,0.03,9.893
			c-0.028,2.155-1.061,3.136-3.229,3.138c-11.308,0.012-22.615,0.014-33.924,0.006c-2.344-0.001-3.241-0.958-3.243-3.395
			C155.26,112.559,155.264,105.125,155.264,97.69z"/>
		<path fill="#FFFFFF" d="M204.733,84.722c-0.395,0.21-1.298,0.528-1.989,1.102c-1.039,0.867-1.979,1.869-2.875,2.889
			c-4.764,5.426-9.357,11.008-14.299,16.266c-2.924,3.111-3.908,7.08-5.738,10.674c-0.158,0.313-0.015,1.011,0.244,1.237
			c0.247,0.215,0.908,0.199,1.25,0.022c2.27-1.18,4.512-2.416,6.738-3.673c0.396-0.223,0.709-0.614,1.02-0.963
			c5.869-6.613,11.746-13.219,17.583-19.862c0.78-0.889,1.54-1.885,1.976-2.966C209.493,87.341,207.525,84.707,204.733,84.722
			 M187.389,111.441c-0.896-0.817-1.771-1.617-2.791-2.549c5.503-6.278,10.967-12.51,16.453-18.769
			c1.027,0.95,1.931,1.786,2.9,2.681C198.423,99.025,192.941,105.192,187.389,111.441"/>
		<path fill="#FFFFFF" d="M175.617,87.521c-3.975,0.001-7.949,0.026-11.922-0.032c-0.5-0.007-0.992-0.457-1.488-0.7
			c0.519-0.373,1.033-1.065,1.555-1.069c7.896-0.069,15.791-0.045,23.688-0.049c0.721,0,1.404,0.003,1.404,1.005
			c-0.002,1.145-0.865,0.831-1.473,0.834C183.461,87.53,179.538,87.52,175.617,87.521"/>
		<path fill="#FFFFFF" d="M175.639,93.484c-3.979,0.001-7.959,0.032-11.938-0.038c-0.513-0.009-1.017-0.544-1.523-0.836
			c0.511-0.325,1.019-0.928,1.532-0.932c7.907-0.058,15.814-0.056,23.723,0.007c0.471,0.004,0.936,0.642,1.404,0.985
			c-0.472,0.272-0.939,0.771-1.414,0.777C183.495,93.51,179.566,93.483,175.639,93.484"/>
		<path fill="#FFFFFF" d="M175.465,79.914c3.922-0.002,7.844-0.033,11.764,0.034c0.537,0.009,1.064,0.502,1.598,0.772
			c-0.529,0.349-1.057,0.997-1.59,1c-7.843,0.068-15.687,0.068-23.529,0.012c-0.514-0.004-1.021-0.588-1.532-0.903
			c0.508-0.305,1.011-0.863,1.524-0.873C167.619,79.882,171.541,79.916,175.465,79.914"/>
		<path fill="#FFFFFF" d="M174.072,99.342c-3.4,0-6.801,0.044-10.197-0.042c-0.576-0.015-1.139-0.586-1.707-0.9
			c0.555-0.312,1.107-0.889,1.665-0.894c6.747-0.064,13.493-0.05,20.239-0.033c0.725,0.002,1.813-0.242,1.668,0.973
			c-0.042,0.356-1.051,0.837-1.627,0.85c-3.346,0.081-6.694,0.04-10.041,0.04V99.342z"/>
		<path fill="#FFFFFF" d="M170.924,105.16c-2.459,0.001-4.919,0.046-7.375-0.038c-0.472-0.015-0.926-0.532-1.389-0.817
			c0.473-0.299,0.941-0.853,1.418-0.859c5.021-0.063,10.043-0.06,15.064,0c0.395,0.004,0.783,0.563,1.174,0.865
			c-0.4,0.283-0.795,0.797-1.205,0.81C176.051,105.196,173.486,105.159,170.924,105.16"/>
		<path fill="#FFFFFF" d="M168.861,109.536c1.831-0.002,3.665-0.065,5.49,0.043c0.438,0.026,0.844,0.617,1.265,0.947
			c-0.417,0.284-0.832,0.806-1.255,0.813c-3.607,0.064-7.22,0.068-10.828-0.006c-0.465-0.01-0.918-0.574-1.377-0.882
			c0.457-0.304,0.898-0.844,1.371-0.872C165.299,109.475,167.082,109.538,168.861,109.536"/>
		<path fill="none" stroke="#FFFFFF" stroke-width="2.5" stroke-miterlimit="10" d="M455.086,177.082
			c-0.517,2.418-0.037,5.796,3.878,9.71c0,0,0.001-3.012,1.176-5.844c2.051,0.912,4.435,1.435,6.98,1.435
			c7.67,0,13.887-4.736,13.887-10.582c0-5.843-6.217-10.581-13.887-10.581c-7.671,0-13.888,4.738-13.888,10.581
			C453.232,173.726,453.909,175.527,455.086,177.082z"/>
		<path fill="none" stroke="#FFFFFF" stroke-width="2.5" stroke-miterlimit="10" d="M448.68,179.623
			c0.518,2.418,0.038,5.796-3.877,9.71c0,0-0.001-3.012-1.177-5.844c-2.052,0.912-4.434,1.436-6.979,1.436
			c-7.669,0-13.887-4.737-13.887-10.582c0-5.843,6.218-10.581,13.887-10.581c7.67,0,13.888,4.738,13.888,10.581
			C450.534,176.268,449.856,178.069,448.68,179.623z"/>
		<circle fill="none" stroke="#FFFFFF" stroke-width="2.5" stroke-miterlimit="10" cx="434.164" cy="195.683" r="8.062"/>
		<path fill="none" stroke="#FFFFFF" stroke-width="2.5" stroke-miterlimit="10" d="M434.263,205.299
			c-6.438,0-11.658,5.219-11.658,11.658v4.284h23.316v-4.284C445.921,210.518,440.7,205.299,434.263,205.299z"/>
		<circle fill="none" stroke="#FFFFFF" stroke-width="2.5" stroke-miterlimit="10" cx="463.697" cy="195.683" r="8.061"/>
		<path fill="none" stroke="#FFFFFF" stroke-width="2.5" stroke-miterlimit="10" d="M463.795,205.299
			c-6.438,0-11.658,5.219-11.658,11.658v4.284h23.315v-4.284C475.452,210.518,470.232,205.299,463.795,205.299z"/>
		<path fill="#FFFFFF" d="M312.764,110.08c-0.017,1.229-0.007,2.459-0.032,3.688c-0.038,1.923-0.713,2.61-2.643,2.616
			c-4.19,0.013-8.383,0.002-12.574-0.012c-2.011-0.006-4.025,0.025-6.033-0.078c-1.899-0.098-2.347-0.873-1.99-2.741
			c0.41-2.133,0.801-4.281,0.999-6.44c0.314-3.415-0.258-6.505-2.542-9.394c-4.153-5.251-5.536-11.356-4.243-17.979
			c1.792-9.177,10.693-16.332,20.543-16.003c9.442,0.313,18.392,7.54,19.431,16.913c0.554,5.003,1.679,9.559,4.358,13.792
			c1.195,1.889,0.665,3.051-1.555,3.484c-1.462,0.286-1.905,1.081-2.026,2.402c-0.147,1.609-0.359,3.219-0.647,4.81
			c-0.581,3.198-1.997,4.354-5.28,4.39c-1.885,0.02-3.77,0.004-5.554,0.004C312.838,109.877,312.765,109.978,312.764,110.08
			 M311.033,114.43c0-1.391-0.015-2.761,0.004-4.131c0.025-1.865,0.668-2.521,2.509-2.543c1.732-0.02,3.466,0.001,5.199-0.006
			c1.893-0.008,2.919-0.774,3.333-2.604c0.295-1.303,0.545-2.625,0.691-3.953c0.438-3.96,0.414-3.962,4.246-5.127
			c-0.549-1.103-0.991-2.239-1.637-3.241c-1.989-3.08-2.77-6.397-2.952-10.08c-0.477-9.548-8.713-16.927-18.192-17.383
			c-12.774-0.615-24.438,12.712-17.183,27.903c0.762,1.597,1.819,3.078,2.901,4.489c1.493,1.949,2.301,4.109,2.19,6.527
			c-0.154,3.336-0.474,6.664-0.733,10.149H311.033z"/>
		<path fill="none" stroke="#FFFFFF" stroke-miterlimit="10" d="M312.764,110.08c-0.017,1.229-0.007,2.459-0.032,3.688
			c-0.038,1.923-0.713,2.61-2.643,2.616c-4.19,0.013-8.383,0.002-12.574-0.012c-2.011-0.006-4.025,0.025-6.033-0.078
			c-1.899-0.098-2.347-0.873-1.99-2.741c0.41-2.133,0.801-4.281,0.999-6.44c0.314-3.415-0.258-6.505-2.542-9.394
			c-4.153-5.251-5.536-11.356-4.243-17.979c1.792-9.177,10.693-16.332,20.543-16.003c9.442,0.313,18.392,7.54,19.431,16.913
			c0.554,5.003,1.679,9.559,4.358,13.792c1.195,1.889,0.665,3.051-1.555,3.484c-1.462,0.286-1.905,1.081-2.026,2.402
			c-0.147,1.609-0.359,3.219-0.647,4.81c-0.581,3.198-1.997,4.354-5.28,4.39c-1.885,0.02-3.77,0.004-5.554,0.004
			C312.838,109.877,312.765,109.978,312.764,110.08z M311.033,114.43c0-1.391-0.015-2.761,0.004-4.131
			c0.025-1.865,0.668-2.521,2.509-2.543c1.732-0.02,3.466,0.001,5.199-0.006c1.893-0.008,2.919-0.774,3.333-2.604
			c0.295-1.303,0.545-2.625,0.691-3.953c0.438-3.96,0.414-3.962,4.246-5.127c-0.549-1.103-0.991-2.239-1.637-3.241
			c-1.989-3.08-2.77-6.397-2.952-10.08c-0.477-9.548-8.713-16.927-18.192-17.383c-12.774-0.615-24.438,12.712-17.183,27.903
			c0.762,1.597,1.819,3.078,2.901,4.489c1.493,1.949,2.301,4.109,2.19,6.527c-0.154,3.336-0.474,6.664-0.733,10.149H311.033z"/>
		<path fill="#FFFFFF" d="M300.978,90.498c0.308-2.518-0.509-4.48-2.401-6.239c-2.188-2.032-2.203-3.405-0.671-6.09
			c0.735-1.291,0.397-2.395-0.688-3.249c-0.053-0.041-0.107-0.071-0.161-0.107c0.604,0.416,1.002,1.11,1.002,1.898
			c0,1.272-1.03,2.303-2.304,2.303c-1.24,0-2.243-0.981-2.294-2.209c-0.029,0.555,0.158,1.107,0.595,1.582
			c0.763,0.828,0.669,1.726,0.984,2.582c0.637,1.724,1.555,3.436,2.73,4.841c0.999,1.193,1.606,2.28,1.542,3.852
			c-0.094,2.285-0.069,4.579,0.034,6.861c0.021,0.499,0.593,0.973,0.912,1.458c0.236-0.485,0.643-0.958,0.679-1.458
			c0.097-1.333,0.033-2.676,0.031-4.016C300.966,91.836,300.898,91.159,300.978,90.498"/>
		<path fill="#FFFFFF" d="M295.754,79.015c1.271,0,2.304-1.031,2.304-2.303c0-0.788-0.397-1.483-1.001-1.898
			c-0.012-0.008-0.021-0.014-0.033-0.021c-0.345-0.229-0.755-0.362-1.198-0.376c-0.024-0.001-0.047-0.007-0.071-0.007
			c-1.271,0-2.304,1.031-2.304,2.302c0,0.032,0.009,0.062,0.01,0.094C293.511,78.033,294.514,79.015,295.754,79.015"/>
		<path fill="none" stroke="#FFFFFF" stroke-miterlimit="10" d="M295.754,79.015c1.271,0,2.304-1.031,2.304-2.303
			c0-0.788-0.397-1.483-1.001-1.898c-0.012-0.008-0.021-0.014-0.033-0.021c-0.345-0.229-0.755-0.362-1.198-0.376
			c-0.024-0.001-0.047-0.007-0.071-0.007c-1.271,0-2.304,1.031-2.304,2.302c0,0.032,0.009,0.062,0.01,0.094
			C293.511,78.033,294.514,79.015,295.754,79.015z"/>
		<path fill="#FFFFFF" d="M308.002,75.449c0.009,0.026,0.013,0.049,0.021,0.076c0.609,1.952,0.727,4.058,1.066,6.179
			c-2.964,0.83-3.076,0.975-3.076,3.568c-0.003,2.569-0.041,5.14,0.038,7.707c0.015,0.455,0.524,0.895,0.805,1.342
			c0.273-0.463,0.769-0.918,0.782-1.388c0.077-2.566,0.075-5.138,0.018-7.707c-0.025-1.093,0.242-1.716,1.466-1.65
			c1.092,0.058,1.462-0.617,1.457-1.598c-0.005-1.061-0.013-2.123-0.011-3.184c0.003-0.946-0.069-1.796,0.677-2.568
			c-0.361,0.237-0.792,0.377-1.257,0.377C309.137,76.603,308.401,76.136,308.002,75.449"/>
		<path fill="#FFFFFF" d="M312.126,73.458c-0.125-0.318-0.319-0.6-0.563-0.831c-0.412-0.387-0.964-0.63-1.575-0.63
			c-0.431,0-0.829,0.125-1.173,0.332c-0.675,0.401-1.131,1.13-1.131,1.972c0,0.42,0.121,0.809,0.318,1.149
			c0.399,0.686,1.134,1.154,1.985,1.154c0.465,0,0.896-0.14,1.257-0.377c0.179-0.116,0.334-0.26,0.473-0.42
			c0.353-0.404,0.574-0.927,0.574-1.505C312.291,74.002,312.229,73.719,312.126,73.458"/>
		<path fill="none" stroke="#FFFFFF" stroke-miterlimit="10" d="M312.126,73.458c-0.125-0.318-0.319-0.6-0.563-0.831
			c-0.412-0.387-0.964-0.63-1.575-0.63c-0.431,0-0.829,0.125-1.173,0.332c-0.675,0.401-1.131,1.13-1.131,1.972
			c0,0.42,0.121,0.809,0.318,1.149c0.399,0.686,1.134,1.154,1.985,1.154c0.465,0,0.896-0.14,1.257-0.377
			c0.179-0.116,0.334-0.26,0.473-0.42c0.353-0.404,0.574-0.927,0.574-1.505C312.291,74.002,312.229,73.719,312.126,73.458z"/>
		<path fill="#FFFFFF" d="M305.866,72.084c-0.363-1.535-1.356-2.472-2.932-2.523c-1.002-0.034-1.856,0.288-2.459,0.989
			c-0.009,0.01-0.019,0.02-0.026,0.029c-0.019,0.022-0.036,0.043-0.054,0.065c-0.453,0.492-0.738,1.143-0.738,1.865
			c0,0.032,0.01,0.063,0.011,0.095c-0.046,0.932,0.347,1.761,1.07,2.567c0.483,0.537,0.921,1.351,0.929,2.043
			c0.074,6.931,0.055,13.861,0.063,20.792c0,0.39-0.109,0.831,0.034,1.16c0.19,0.436,0.58,0.784,0.883,1.169
			c0.248-0.414,0.706-0.825,0.713-1.243c0.056-3.745,0.032-7.49,0.033-11.234c0.001-3.522,0.016-7.042-0.009-10.564
			c-0.007-0.877,0.068-1.485,1.055-1.957C305.685,74.74,306.206,73.515,305.866,72.084 M302.813,74.929
			c-1.271,0-2.303-1.031-2.303-2.303c0-1.271,1.031-2.303,2.303-2.303c1.272,0,2.303,1.032,2.303,2.303
			C305.115,73.898,304.085,74.929,302.813,74.929"/>
		<path fill-rule="evenodd" clip-rule="evenodd" fill="#FFFFFF" d="M299.987,72.303c0,1.608,1.306,2.913,2.913,2.913
			c1.608,0,2.913-1.305,2.913-2.913c0-1.609-1.305-2.913-2.913-2.913C301.293,69.39,299.987,70.694,299.987,72.303"/>
		<circle fill="none" stroke="#FFFFFF" stroke-miterlimit="10" cx="302.9" cy="72.303" r="2.913"/>
		<path fill="#FFFFFF" d="M116.053,254.059H95.869v33.695h27.023v-28.496L116.053,254.059z M121.555,286.42H97.207v-31.027h18.207
			v4.754h6.141V286.42z"/>
		<path fill="none" stroke="#FFFFFF" stroke-width="0.5" stroke-miterlimit="10" d="M116.053,254.059H95.869v33.695h27.023v-28.496
			L116.053,254.059z M121.555,286.42H97.207v-31.027h18.207v4.754h6.141V286.42z"/>
		<rect x="99.846" y="263.652" fill="#FFFFFF" width="18.237" height="0.946"/>
		
			<rect x="99.846" y="263.652" fill="none" stroke="#FFFFFF" stroke-width="0.5" stroke-miterlimit="10" width="18.237" height="0.946"/>
		<rect x="99.846" y="266.709" fill="#FFFFFF" width="18.237" height="0.945"/>
		
			<rect x="99.846" y="266.709" fill="none" stroke="#FFFFFF" stroke-width="0.5" stroke-miterlimit="10" width="18.237" height="0.945"/>
		<rect x="99.846" y="269.77" fill="#FFFFFF" width="18.237" height="0.945"/>
		
			<rect x="99.846" y="269.77" fill="none" stroke="#FFFFFF" stroke-width="0.5" stroke-miterlimit="10" width="18.237" height="0.945"/>
		<rect x="99.846" y="272.826" fill="#FFFFFF" width="18.237" height="0.945"/>
		
			<rect x="99.846" y="272.826" fill="none" stroke="#FFFFFF" stroke-width="0.5" stroke-miterlimit="10" width="18.237" height="0.945"/>
		<rect x="99.846" y="275.885" fill="#FFFFFF" width="18.237" height="0.945"/>
		
			<rect x="99.846" y="275.885" fill="none" stroke="#FFFFFF" stroke-width="0.5" stroke-miterlimit="10" width="18.237" height="0.945"/>
		<rect x="99.846" y="278.943" fill="#FFFFFF" width="18.237" height="0.945"/>
		
			<rect x="99.846" y="278.943" fill="none" stroke="#FFFFFF" stroke-width="0.5" stroke-miterlimit="10" width="18.237" height="0.945"/>
		<rect x="99.846" y="282.002" fill="#FFFFFF" width="8.729" height="0.945"/>
		
			<rect x="99.846" y="282.002" fill="none" stroke="#FFFFFF" stroke-width="0.5" stroke-miterlimit="10" width="8.729" height="0.945"/>
		<path fill="#FFFFFF" d="M154.84,286.887h-20.184v33.697h27.023v-28.498L154.84,286.887z M160.342,319.25h-24.348v-31.027h18.207
			v4.754h6.141V319.25z"/>
		<path fill="none" stroke="#FFFFFF" stroke-width="0.5" stroke-miterlimit="10" d="M154.84,286.887h-20.184v33.697h27.023v-28.498
			L154.84,286.887z M160.342,319.25h-24.348v-31.027h18.207v4.754h6.141V319.25z"/>
		<rect x="138.633" y="296.482" fill="#FFFFFF" width="18.236" height="0.943"/>
		
			<rect x="138.633" y="296.482" fill="none" stroke="#FFFFFF" stroke-width="0.5" stroke-miterlimit="10" width="18.236" height="0.943"/>
		<rect x="138.633" y="299.539" fill="#FFFFFF" width="18.236" height="0.945"/>
		
			<rect x="138.633" y="299.539" fill="none" stroke="#FFFFFF" stroke-width="0.5" stroke-miterlimit="10" width="18.236" height="0.945"/>
		<rect x="138.633" y="302.598" fill="#FFFFFF" width="18.236" height="0.945"/>
		
			<rect x="138.633" y="302.598" fill="none" stroke="#FFFFFF" stroke-width="0.5" stroke-miterlimit="10" width="18.236" height="0.945"/>
		<rect x="138.633" y="305.656" fill="#FFFFFF" width="18.236" height="0.945"/>
		
			<rect x="138.633" y="305.656" fill="none" stroke="#FFFFFF" stroke-width="0.5" stroke-miterlimit="10" width="18.236" height="0.945"/>
		<rect x="138.633" y="308.715" fill="#FFFFFF" width="18.236" height="0.945"/>
		
			<rect x="138.633" y="308.715" fill="none" stroke="#FFFFFF" stroke-width="0.5" stroke-miterlimit="10" width="18.236" height="0.945"/>
		<rect x="138.633" y="311.773" fill="#FFFFFF" width="18.236" height="0.945"/>
		
			<rect x="138.633" y="311.773" fill="none" stroke="#FFFFFF" stroke-width="0.5" stroke-miterlimit="10" width="18.236" height="0.945"/>
		<rect x="138.633" y="314.832" fill="#FFFFFF" width="8.729" height="0.943"/>
		
			<rect x="138.633" y="314.832" fill="none" stroke="#FFFFFF" stroke-width="0.5" stroke-miterlimit="10" width="8.729" height="0.943"/>
		<path fill="#FFFFFF" d="M116.903,298.746c0.669-0.078,1.271-0.15,2.28-0.27c-1.936-2.268-3.65-4.277-5.513-6.459
			c-1.819,2.148-5.565,6.42-5.584,6.543c1.288,0.236,2.245,0.389,2.245,0.389s0.414,1.451,0.661,2.125
			c2.728,7.447,11.365,11.537,18.84,9.105c0.3-0.098,1.14-0.477,1.585-0.758c-4.439,0.777-8.084-0.088-11.121-3.006
			C118.19,304.393,116.914,301.518,116.903,298.746"/>
		<path fill="#FFFFFF" d="M140.937,276.475c-0.669,0.078-1.27,0.15-2.28,0.27c1.937,2.27,3.65,4.277,5.514,6.461
			c1.818-2.15,5.565-6.422,5.584-6.545c-1.289-0.236-2.246-0.389-2.246-0.389s-0.414-1.451-0.66-2.125
			c-2.729-7.446-11.365-11.537-18.841-9.105c-0.3,0.098-1.139,0.477-1.584,0.759c4.438-0.778,8.084,0.089,11.12,3.005
			C139.65,270.828,140.926,273.703,140.937,276.475"/>
		
			<polyline fill="none" stroke="#FFFFFF" stroke-width="2.5" stroke-linecap="round" stroke-linejoin="round" stroke-miterlimit="10" points="
			268.537,207.523 268.537,209.269 268.537,255.135 343.465,255.141 343.465,207.277 		"/>
		
			<polyline fill="none" stroke="#FFFFFF" stroke-width="2.5" stroke-linecap="round" stroke-linejoin="round" stroke-miterlimit="10" points="
			276.133,200.527 276.133,245.477 306.053,255.141 335.973,245.484 335.973,200.281 		"/>
		
			<polygon fill="none" stroke="#FFFFFF" stroke-width="2.5" stroke-linecap="round" stroke-linejoin="round" stroke-miterlimit="10" points="
			284.188,191.536 284.625,238.318 306.053,254.725 328.973,238.324 328.973,191.536 306.309,208.519 		"/>
		
			<line fill="none" stroke="#FFFFFF" stroke-width="2.5" stroke-linecap="round" stroke-linejoin="round" stroke-miterlimit="10" x1="306.053" y1="208.108" x2="306.053" y2="254.31"/>
		
			<path fill="none" stroke="#FFFFFF" stroke-width="2.5" stroke-linecap="round" stroke-linejoin="round" stroke-miterlimit="10" d="
			M423.915,324.539c-1.153-0.957-2.505-1.699-3.915-2.209c-2.661-0.961-4.538-1.17-7.367-1.131"/>
		<circle fill="none" stroke="#FFFFFF" stroke-width="2.5" stroke-miterlimit="10" cx="406.713" cy="308.857" r="10.797"/>
		<circle fill="none" stroke="#FFFFFF" stroke-width="2.5" stroke-miterlimit="10" cx="429.167" cy="338.025" r="13.767"/>
		
			<path fill="none" stroke="#FFFFFF" stroke-width="2.5" stroke-linecap="round" stroke-linejoin="round" stroke-miterlimit="10" d="
			M419.255,347.572h-32.98c0.032-4.396,0.026-6.953,0.058-11.35c0.02-2.859,0.069-5.84,1.39-8.375
			c1.307-2.512,3.754-4.297,6.416-5.258s4.538-1.17,7.369-1.131"/>
		<path fill="none" stroke="#FFFFFF" stroke-width="2.5" stroke-miterlimit="10" d="M411.805,318.018
			c0.186,0.559,0.285,1.158,0.285,1.781c0,3.012-2.339,5.453-5.224,5.453c-2.886,0-5.225-2.441-5.225-5.453
			c0-0.623,0.101-1.223,0.285-1.781"/>
		<path fill="#FFFFFF" d="M435.378,333.924c-0.763-1.061-1.616-1.84-2.559-2.34c-0.943-0.498-2.019-0.746-3.227-0.746
			c-1.893,0-3.512,0.699-4.855,2.104c-1.345,1.402-2.017,3.07-2.017,5.002c0,2.057,0.668,3.789,2.004,5.201
			c1.337,1.408,2.96,2.115,4.868,2.115c1.177,0,2.241-0.246,3.191-0.736c0.95-0.492,1.775-1.223,2.477-2.197h1.988
			c-0.78,1.449-1.824,2.568-3.132,3.359c-1.311,0.791-2.779,1.188-4.407,1.188c-2.501,0-4.588-0.854-6.258-2.561
			c-1.673-1.707-2.508-3.838-2.508-6.393c0-1.191,0.226-2.322,0.679-3.391c0.45-1.068,1.113-2.029,1.985-2.885
			c0.811-0.813,1.721-1.424,2.729-1.842c1.009-0.416,2.102-0.625,3.279-0.625c1.689,0,3.212,0.412,4.563,1.238
			s2.422,1.994,3.207,3.508H435.378z"/>
		<path fill="#FFFFFF" d="M395.866,346.873h-2.498v-11.521c0,0,0-0.293,0.236-0.625c0.232-0.326,1.013-1.24,1.013-1.24
			s0.824,0.943,1.054,1.291c0.146,0.223,0.195,0.527,0.195,0.527V346.873z"/>
	</g>
</g>
</svg>
