<svg xmlns="http://www.w3.org/2000/svg" xml:space="preserve" width="411.831" height="140.04"><path fill="#FFF" fill-rule="evenodd" d="M292.967 59.687c0 4.172-1.044 9.056-2.088 13.235-.181.697-.526 1.384-.872 2.086l8.182-3.484c.345-.339.871-.87 1.217-1.215.354-3.128 1.217-6.259 1.915-8.52 1.044-3.825 3.823-7.297 6.266-10.107 2.088-2.438 5.574-5.04 9.044-6.074 6.445-15.492 5.566-29.601 17.405-45.609-14.272.181-25.405 2.446-40.024 7.305-7.835 11.326-11.658 23.321-15.316 35.342 4.357.179 8.188 1.91 10.096 4.853 2.434 3.151 4.177 7.315 4.177 12.536v-.348zm-5.92 20.374c-.69 1.386-1.562 2.594-2.434 4-2.088 3.129-5.565 5.563-8.698 7.305-3.139 1.392-7.32 2.434-10.794 2.434-2.778 0-5.563-.358-7.652-.358-.347-.167-.7-.345-1.048-.518l-5.568 2.458-.699 2.423c30.982 2.43 42.296 18.964 83.355 29.761a116.5 116.5 0 0 0 35.503-22.094c.698-.707 1.397-1.585 2.277-2.452-12.72-2.076-21.418-6.594-29.944-11.496-1.907.713-3.65 1.233-5.566 1.233-3.486.685-7.663 1.042-10.787 1.042v.707c-8.361 0-14.618-2.8-18.804-5.918-2.951-2.452-5.221-6.099-6.265-10.444-2.614-.177-5.213-.177-8-.177zm-37.59 20.515-2.432 9.581h-15.319l1.917-7.659-10.267 4.188c31.198 26.055 66.905 36.443 105.458 22.62-29.927-7.318-49.421-26.45-79.357-28.73m-14.962-2.423 12.53-53.78h16.012l-1.046 5.235c2.439-2.109 5.57-3.835 7.654-4.879 1.394-.699 2.958-1.39 4.701-1.737 3.483-10.45 7.143-21.41 14.271-33.416-22.101 11.484-35.503 22.097-48.378 40.547-10.612 18.098-13.404 27.67-17.399 52.897zm36.025-43.66c-3.304 9.558-7.482 18.59-14.964 27.825h-1.564l5.566-24.696c1.734-.711 3.829-1.753 4.873-2.101 1.044-.705 3.131-1.028 4.164-1.028zm2.256 22.6c1.048-1.743 2.086-4.171 2.785-6.267.354-2.083 1.044-5.219 1.044-8.002 0-2.083-.69-4.859-1.743-5.914-.164-.352-.343-.528-.685-.882-3.139 9.414-7.313 18.439-14.099 27.171.171 0 .344.163.522.163 2.436 0 4.873-.707 6.96-1.753 2.084-1.032 3.825-2.421 4.873-4.162zm64.392-14.962-.346-1.042s.346-1.053.346-1.402v-.508l-6.956 2.952zm-1.217-6.61c-.354-.179-.519-.524-.863-.705-1.397-1.042-4.177-2.08-6.273-2.08-3.124 0-5.92 1.038-8 2.785-2.097 1.39-4.185 4.167-5.221 6.61h4.867zm-36.546 19.304v.352c-.173 0-.346 0-.346-.168zm21.056-30.62c3.313-1.048 6.61-1.558 9.751-1.558 7.646 0 13.221 1.727 16.354 4.168 1.209.867 2.089 1.91 2.96 3.135l2.614-1.225c14.783-13.215 9.39-27.665 20.357-42.45C360.403 1.513 350.948 0 338.04 0c-12.35 15.145-12.531 29.757-17.579 44.205m31.325 10.288c.526 1.718.691 3.472.691 5.543 0 2.095-.338 4.171-.338 5.918-.698 1.732-1.751 3.831-1.751 5.231H314.55v1.0379999999999998c0 1.745.345 3.48 1.044 4.87a74.3 74.3 0 0 1 15.317 5.397c2.598-.173 5.394-.518 7.31-1.217 3.124-1.055 5.911-2.793 7.991-3.827h2.089l-2.952 12.703c7.663 4.181 15.836 8.183 28.193 10.086 9.57-11.124 16.361-20.688 21.746-30.45-7.654-1.217-12.004-4.004-16.533-6.779l-7.129 29.406h-15.317l8.181-36.03c-3.478-1.04-7.491-1.739-12.704-1.889m46.988 4.511h-4.176c-1.044 0-2.441-.357-3.485-.357-2.089 0-4.522.357-5.912.357-1.734 0-3.65.683-5.229 1.39 4.357 2.775 8.879 5.387 16.706 6.604 5.929-11.311 10.105-23.476 15.153-39.317l-39.515 16.692h10.796l-1.743 7.309c2.778-2.074 5.911-4.183 8.707-5.212 2.434-1.057 5.566-2.097 8.698-2.097h1.735c.345 0 1.397.356 2.097.356zm-32.196-12.361-1.398 6.611c-2.771-.88-6.084-1.394-10.088-1.729zm8.879-39.161c-8.879 10.277-7.481 26.109-16.188 38.292l50.992-21.399c-15.31-7.311-25.241-12.889-34.804-16.893M49.348 92.538H7.254l2.933-12.742h11.741l10.726-46.407H20.921l2.929-12.742h42.117l-2.956 12.742H51.274L40.565 79.796H52.3zm70.337-37.283c0 .867-.052 1.792-.163 2.804a27 27 0 0 1-.563 3.118l-7.203 31.36H96.135l5.486-23.889c.415-1.776.719-3.283.958-4.542.213-1.256.332-2.432.332-3.525 0-1.871-.469-3.208-1.405-4.068-.954-.87-2.679-1.299-5.198-1.299q-1.848.002-4.249.789c-1.597.537-3.397 1.346-5.401 2.393l-7.853 34.142H63.271l11.11-48.17h15.545l-1.249 5.322c3.161-2.099 6.062-3.73 8.68-4.902 2.627-1.167 5.499-1.757 8.646-1.757 4.314 0 7.684 1.032 10.084 3.147 2.405 2.087 3.598 5.114 3.598 9.077m31.051 38.576c-3.287 0-6.368-.405-9.239-1.235-2.874-.792-5.388-2.076-7.525-3.789-2.095-1.693-3.723-3.796-4.896-6.345-1.167-2.546-1.749-5.474-1.749-8.842 0-4.314.811-8.321 2.457-12.033a29.4 29.4 0 0 1 6.931-9.714c2.927-2.722 6.479-4.878 10.685-6.454 4.193-1.587 8.75-2.389 13.646-2.389 2.945 0 5.859.333 8.776 1.005 2.893.638 5.589 1.591 8.078 2.863l-3.266 13.17h-2.178c-1.686-2.017-3.607-3.527-5.73-4.528-2.144-.987-4.523-1.484-7.191-1.484-4.859 0-8.77 1.729-11.711 5.164-2.941 3.449-4.417 7.749-4.417 12.89 0 3.595.904 6.259 2.718 8.026 1.813 1.774 4.641 2.653 8.477 2.653 2.971 0 5.688-.602 8.123-1.805 2.45-1.227 4.541-2.577 6.286-4.055h2.205l-3.269 13.159c-3.093 1.348-5.805 2.316-8.135 2.874-2.324.575-5.36.869-9.076.869m61.27-24.035c-2.761.238-5.338.508-7.727.83-2.405.3-4.441.773-6.144 1.371-1.737.627-3.069 1.497-3.981 2.649-.925 1.153-1.377 2.668-1.377 4.549 0 1.663.608 2.829 1.829 3.515 1.215.668 2.979.986 5.299.986 1.511 0 3.133-.331 4.865-1.05a23 23 0 0 0 4.867-2.68zm-4.093 17.654c-.962.606-2.131 1.367-3.508 2.249-1.376.898-2.636 1.593-3.824 2.115a36 36 0 0 1-4.499 1.509c-1.401.325-3.347.508-5.837.508-4.003 0-7.265-1.139-9.793-3.365-2.538-2.245-3.799-5.182-3.799-8.777 0-3.807.891-7.021 2.699-9.673 1.799-2.653 4.479-4.769 8.021-6.343 3.319-1.486 7.278-2.544 11.86-3.203 4.602-.67 9.558-1.139 14.906-1.459.028-.181.093-.444.179-.822.086-.401.134-.834.134-1.33 0-2.016-.954-3.449-2.85-4.249-1.88-.836-4.698-1.252-8.443-1.252-2.543 0-5.358.436-8.421 1.297-3.073.865-5.382 1.558-6.948 2.15h-1.397l2.263-11.408c1.803-.461 4.593-.979 8.372-1.546a76 76 0 0 1 11.291-.859c7.535 0 13.083.995 16.618 2.958 3.525 1.973 5.297 5.027 5.297 9.184 0 .553-.063 1.31-.144 2.239-.106.906-.259 1.71-.411 2.398l-7.564 32.767H206.76zM1.32 105.364H2.6v11.856H1.32zm4.222 11.856v-8.586h1.077v1.211c.259-.473.578-.82.943-1.067.38-.241.812-.343 1.301-.343.37 0 .728.078 1.044.222.325.144.582.329.779.578.191.232.337.565.432.929q.153.597.152 1.758v5.299h-1.2V112c0-.635-.051-1.11-.156-1.39-.115-.292-.28-.522-.503-.666a1.3 1.3 0 0 0-.8-.247c-.573 0-1.032.206-1.365.629-.337.44-.512 1.159-.512 2.201v4.693zm7.967-2.568 1.186-.23c.07.619.261 1.051.582 1.351.308.288.722.444 1.246.444.514 0 .911-.124 1.2-.387.284-.251.416-.578.416-.974 0-.337-.117-.608-.352-.792q-.264-.186-1.217-.501c-.934-.282-1.55-.503-1.869-.724a1.95 1.95 0 0 1-.729-.792 2.5 2.5 0 0 1-.255-1.139c0-.746.236-1.332.703-1.788.477-.465 1.123-.687 1.953-.687.53 0 .986.103 1.383.279.399.185.697.444.908.752.208.333.358.773.43 1.363l-1.159.214c-.109-.956-.617-1.404-1.534-1.404-.512 0-.898.086-1.146.304a.97.97 0 0 0-.385.8c0 .32.115.569.358.742.148.107.578.284 1.301.535.99.298 1.626.557 1.919.752.29.181.52.424.676.752.163.316.236.703.236 1.147 0 .822-.259 1.48-.779 1.992-.52.5-1.223.761-2.127.761-1.689.001-2.67-.914-2.945-2.77m10.783 1.265.168 1.285a3.1 3.1 0 0 1-.894.127c-.409 0-.746-.086-1.003-.234a1.3 1.3 0 0 1-.516-.676c-.101-.288-.146-.867-.146-1.716v-4.945h-.868v-1.123h.868v-2.15l1.192-.845v2.995h1.198v1.123h-1.198v5.034c0 .462.033.761.107.886.103.212.286.309.573.309.136-.003.305-.042.519-.07m1.987-10.553h1.2v1.661h-1.2zm0 3.27h1.2v8.586h-1.2zm6.553 7.283.171 1.285a3.2 3.2 0 0 1-.9.127c-.415 0-.746-.086-1.003-.234a1.33 1.33 0 0 1-.521-.676c-.099-.288-.144-.867-.144-1.716v-4.945h-.865v-1.123h.865v-2.15l1.192-.845v2.995h1.204v1.123h-1.204v5.034c0 .462.033.761.111.886.103.212.288.309.567.309.136-.003.316-.042.527-.07m6.606 1.303v-1.274c-.27.506-.6.849-.968 1.112a2.3 2.3 0 0 1-1.26.366 2.43 2.43 0 0 1-1.429-.462 2.07 2.07 0 0 1-.787-1.131c-.129-.471-.195-1.089-.195-1.875v-5.322h1.186v4.767c0 .876.037 1.456.136 1.764.086.309.244.551.487.724.241.173.518.282.829.282.565 0 1.034-.243 1.402-.715.323-.395.473-1.149.473-2.22v-4.601h1.194v8.586zm6.469-1.303.164 1.285a3 3 0 0 1-.89.127c-.417 0-.75-.086-1.005-.234a1.34 1.34 0 0 1-.522-.676c-.093-.288-.134-.867-.134-1.716v-4.945h-.884v-1.123h.884v-2.15l1.19-.845v2.995h1.196v1.123H44.71v5.034c0 .462.026.761.101.886.09.212.29.309.571.309.139-.003.307-.042.525-.07m1.546-2.993c0-1.486.302-2.606.931-3.347.621-.777 1.408-1.143 2.364-1.143.941 0 1.729.366 2.36 1.143.633.74.941 1.844.941 3.252q.001 2.318-.931 3.445c-.617.772-1.406 1.149-2.37 1.149-.939 0-1.733-.376-2.36-1.149-.627-.762-.935-1.873-.935-3.35m1.219 0c0 1.112.209 1.932.606 2.483.409.539.907.81 1.505.81.565 0 1.04-.271 1.443-.82.405-.541.603-1.361.603-2.473 0-1.098-.198-1.918-.603-2.487-.411-.534-.902-.797-1.507-.797-.563 0-1.048.263-1.447.812-.399.554-.6 1.374-.6 2.472m17.641.136 1.295.407c-.294 1.324-.787 2.306-1.509 2.985-.709.643-1.582.972-2.606.972q-1.347 0-2.313-.664c-.639-.436-1.157-1.151-1.564-2.107-.413-.984-.615-2.125-.615-3.455 0-1.306.202-2.401.615-3.301.407-.9.962-1.595 1.657-2.058a4.17 4.17 0 0 1 2.325-.676c.943 0 1.747.286 2.421.859.681.6 1.147 1.447 1.417 2.586l-1.261.361c-.432-1.652-1.303-2.485-2.6-2.485-.642 0-1.211.189-1.686.512q-.71.507-1.126 1.542c-.292.707-.442 1.597-.442 2.66 0 1.622.29 2.849.865 3.659.567.82 1.338 1.227 2.286 1.227a2.45 2.45 0 0 0 1.807-.765q.771-.739 1.034-2.259m8.194 3.109c-.398.413-.82.734-1.252.945-.434.191-.871.309-1.34.309-.731 0-1.315-.232-1.758-.664-.438-.457-.655-1.044-.655-1.789 0-.51.11-.935.309-1.332a2.23 2.23 0 0 1 .836-.88c.364-.232.9-.384 1.626-.481.969-.152 1.686-.309 2.132-.51l.013-.376c0-.582-.107-1.005-.314-1.248q-.444-.507-1.367-.505c-.56 0-.977.099-1.248.345-.281.22-.477.654-.604 1.291l-1.173-.212c.164-.919.499-1.564 1.015-1.994.5-.423 1.235-.635 2.189-.635.733 0 1.319.132 1.734.407.424.279.688.625.802 1.042.105.405.169.997.169 1.786v1.961c0 1.351.017 2.199.076 2.557.043.357.147.695.298 1.032h-1.25a3.5 3.5 0 0 1-.238-1.049m-.103-3.264c-.432.214-1.085.386-1.946.561q-.749.116-1.055.29c-.203.104-.342.259-.463.471-.11.195-.168.425-.168.678 0 .413.129.74.386 1.005.245.241.601.355 1.045.355.434 0 .813-.096 1.167-.32.346-.23.603-.52.781-.886.173-.368.253-.909.253-1.614zm3.93 7.599v-11.871h1.096v1.104c.266-.462.565-.797.9-.989a2 2 0 0 1 1.128-.314c.558 0 1.053.165 1.503.483.446.339.814.839 1.09 1.511.265.664.398 1.474.398 2.411 0 1.466-.311 2.604-.917 3.388-.608.799-1.321 1.196-2.151 1.196-.372 0-.71-.107-1.034-.29a2.6 2.6 0 0 1-.82-.81v4.181zm1.079-7.523q-.002 1.666.558 2.444c.372.52.826.792 1.346.792.512 0 .952-.271 1.343-.81.382-.551.573-1.392.573-2.541 0-1.116-.187-1.938-.56-2.479q-.564-.812-1.362-.81c-.475 0-.91.28-1.31.859-.395.588-.588 1.427-.588 2.545m7.343-7.617h1.191v1.661h-1.191zm0 3.27h1.191v8.586h-1.191zm3.118 8.586 2.573-4.46-2.38-4.125h1.492l1.079 2.004c.201.376.367.697.495.974.201-.386.385-.685.532-.945l1.192-2.033h1.418l-2.432 4.041 2.625 4.545h-1.461l-1.451-2.664-.379-.733-1.854 3.397h-1.449zm13.037-1.051c-.398.413-.808.734-1.241.945-.436.191-.88.309-1.342.309-.74 0-1.322-.232-1.756-.664-.436-.457-.662-1.044-.662-1.789 0-.51.099-.935.305-1.332.208-.376.495-.676.849-.88.357-.232.893-.384 1.616-.481.966-.152 1.683-.309 2.142-.51l.004-.376c0-.582-.115-1.005-.316-1.248-.294-.339-.752-.505-1.365-.505-.557 0-.97.099-1.245.345-.275.22-.478.654-.608 1.291l-1.178-.212c.172-.919.508-1.564 1.02-1.994q.759-.635 2.193-.635c.733 0 1.313.132 1.734.407q.626.417.8 1.042c.101.405.164.997.164 1.786v1.961c0 1.351.026 2.199.08 2.557.048.357.152.695.296 1.032h-1.245a3.5 3.5 0 0 1-.245-1.049m-.09-3.264c-.444.214-1.094.386-1.959.561-.493.078-.854.173-1.046.29-.2.104-.362.259-.461.471a1.3 1.3 0 0 0-.171.678c0 .413.128.74.381 1.005.255.241.604.355 1.053.355.423 0 .812-.096 1.163-.32.341-.23.604-.52.787-.886.158-.368.253-.909.253-1.614zm5.02 4.315h-1.102v-11.856h1.189v4.213c.249-.382.541-.678.854-.863a2.2 2.2 0 0 1 1.083-.279c.549 0 1.046.165 1.494.483.448.339.813.839 1.083 1.5.273.674.399 1.484.399 2.44 0 1.447-.3 2.586-.913 3.369-.608.799-1.312 1.196-2.131 1.196-.411 0-.779-.117-1.106-.329-.329-.211-.608-.528-.851-.964zm-.011-4.362c0 .898.074 1.564.238 1.998.165.444.391.789.695 1.015.29.241.623.346.98.346q.746.002 1.305-.82c.385-.549.582-1.39.582-2.491 0-1.137-.189-1.957-.56-2.487-.369-.526-.817-.779-1.348-.779-.491 0-.932.263-1.315.812-.382.562-.577 1.345-.577 2.406m11.933 3.311c-.397.413-.816.734-1.24.945-.436.191-.879.309-1.354.309-.726 0-1.315-.232-1.751-.664-.434-.457-.649-1.044-.649-1.789 0-.51.095-.935.302-1.332.21-.376.496-.676.848-.88.357-.232.897-.384 1.615-.481.973-.152 1.686-.309 2.134-.51l.01-.376c0-.582-.106-1.005-.32-1.248-.284-.339-.75-.505-1.358-.505-.558 0-.975.099-1.25.345-.271.22-.473.654-.612 1.291l-1.166-.212c.169-.919.504-1.564 1.014-1.994.51-.423 1.243-.635 2.188-.635.738 0 1.326.132 1.741.407.424.279.687.625.8 1.042.107.405.158.997.158 1.786v1.961c0 1.351.027 2.199.082 2.557.046.357.15.695.305 1.032h-1.248c-.126-.286-.206-.652-.249-1.049m-.097-3.264c-.437.214-1.086.386-1.949.561-.503.078-.845.173-1.048.29a1.05 1.05 0 0 0-.469.471 1.35 1.35 0 0 0-.158.678c0 .413.121.74.376 1.005.251.241.604.355 1.046.355.43 0 .818-.096 1.17-.32.344-.23.596-.52.775-.886.174-.368.257-.909.257-1.614zm11.42 4.315v-1.089c-.22.425-.497.732-.843.964a2.03 2.03 0 0 1-1.098.329q-1.243-.001-2.152-1.186c-.614-.783-.921-1.896-.921-3.313 0-.975.14-1.794.411-2.496.27-.672.629-1.171 1.073-1.511.46-.318.956-.483 1.507-.483.389 0 .767.103 1.1.314.329.191.61.485.83.853v-4.238h1.198v11.856zm-3.784-4.282c0 1.098.189 1.918.578 2.469.38.539.836.81 1.342.81.504 0 .951-.271 1.317-.773.376-.539.565-1.299.565-2.364 0-1.196-.189-2.066-.565-2.629-.366-.549-.837-.812-1.399-.812-.506 0-.938.252-1.295.789-.365.529-.543 1.357-.543 2.51m12.456 1.513 1.226.191c-.202.909-.578 1.614-1.112 2.08-.532.45-1.194.701-1.992.701-1.007 0-1.807-.376-2.427-1.149-.617-.763-.919-1.853-.919-3.272 0-1.486.311-2.615.935-3.404q.925-1.163 2.364-1.163c.902 0 1.669.387 2.275 1.143.616.769.913 1.881.913 3.328l-.005.386h-5.253c.047.975.271 1.698.67 2.181.396.501.884.744 1.457.744.887 0 1.514-.588 1.868-1.766m-3.924-2.347h3.928c-.049-.74-.216-1.319-.473-1.675-.382-.537-.873-.789-1.468-.789-.536 0-.986.218-1.362.658-.387.445-.592 1.056-.625 1.806m10.616 5.116v-11.856h3.659c.874 0 1.498.058 1.911.213.56.222 1.01.59 1.341 1.149.339.549.506 1.221.506 2.041 0 1.064-.278 1.946-.818 2.61q-.817 1.017-2.82 1.018h-2.487v4.824h-1.292zm1.291-6.214h2.516c.781 0 1.371-.195 1.735-.555.366-.364.549-.89.549-1.62q0-.7-.273-1.198c-.181-.341-.4-.559-.66-.694-.253-.126-.717-.189-1.379-.189h-2.487v4.256zm13.285 3.445 1.232.191c-.205.909-.581 1.614-1.122 2.08-.534.45-1.196.701-1.985.701-1.012 0-1.817-.376-2.434-1.149-.608-.763-.921-1.853-.921-3.272 0-1.486.313-2.615.934-3.404.626-.776 1.409-1.163 2.374-1.163.9 0 1.667.387 2.273 1.143q.917 1.156.918 3.328l-.01.386h-5.262c.049.975.271 1.698.668 2.181.4.501.896.744 1.465.744q1.35 0 1.87-1.766m-3.922-2.347h3.922c-.048-.74-.204-1.319-.473-1.675-.387-.537-.872-.789-1.464-.789-.534 0-.986.218-1.369.658-.375.445-.589 1.056-.616 1.806m7.067 2.548 1.18-.23c.08.619.266 1.051.578 1.351.316.288.731.444 1.254.444.52 0 .912-.124 1.195-.387.29-.251.418-.578.418-.974 0-.337-.117-.608-.355-.792-.169-.125-.576-.29-1.211-.501-.934-.282-1.554-.503-1.862-.724a1.9 1.9 0 0 1-.729-.792 2.4 2.4 0 0 1-.257-1.139c0-.746.231-1.332.7-1.788.467-.465 1.119-.687 1.949-.687.526 0 .984.103 1.385.279.397.185.693.444.911.752.21.333.35.773.432 1.363l-1.17.214c-.099-.956-.614-1.404-1.524-1.404-.521 0-.9.086-1.158.304a.98.98 0 0 0-.376.8c0 .32.115.569.36.742q.225.16 1.295.535c.988.298 1.628.557 1.915.752.294.181.524.424.681.752.162.316.244.703.244 1.147 0 .822-.261 1.48-.783 1.992-.521.5-1.227.761-2.121.761-1.697.001-2.676-.914-2.951-2.77m12.612 5.852v-4.202c-.191.319-.45.601-.785.812-.341.202-.676.309-1.016.309-.845 0-1.57-.397-2.181-1.207-.616-.798-.925-1.92-.925-3.388 0-1.237.253-2.296.776-3.151.51-.818 1.25-1.244 2.2-1.244.439 0 .824.103 1.167.333.34.218.631.565.872 1.007v-1.141h1.083v11.871h-1.191zm-3.685-7.599c0 1.11.193 1.951.586 2.491q.573.822 1.388.82c.482 0 .9-.271 1.278-.792.37-.52.551-1.313.551-2.345 0-1.178-.191-2.066-.579-2.644-.396-.567-.859-.859-1.395-.859-.486 0-.929.268-1.286.81-.37.542-.543 1.383-.543 2.519m12.249 4.315v-1.274a3.16 3.16 0 0 1-.973 1.112 2.3 2.3 0 0 1-1.264.366 2.42 2.42 0 0 1-1.425-.462 2.12 2.12 0 0 1-.791-1.131c-.136-.471-.195-1.089-.195-1.875v-5.322h1.186v4.767c0 .876.043 1.456.136 1.764.086.309.257.551.495.724.237.173.508.282.814.282.582 0 1.05-.243 1.418-.715.3-.395.467-1.149.467-2.22v-4.601h1.198v8.586zm3.796-11.856h1.198v1.661h-1.198zm0 3.27h1.198v8.586h-1.198zm3.436 6.018 1.185-.23c.065.619.265 1.051.573 1.351.309.288.734.444 1.244.444.521 0 .925-.124 1.202-.387q.425-.378.426-.974c0-.337-.12-.608-.362-.792-.162-.125-.569-.29-1.211-.501-.927-.282-1.556-.503-1.864-.724a1.94 1.94 0 0 1-.729-.792 2.44 2.44 0 0 1-.255-1.139c0-.746.236-1.332.699-1.788.469-.465 1.124-.687 1.954-.687.524 0 .98.103 1.378.279.398.185.698.444.912.752.208.333.352.773.444 1.363l-1.176.214c-.105-.956-.608-1.404-1.521-1.404-.518 0-.914.086-1.165.304a.98.98 0 0 0-.376.8q0 .481.361.742c.15.107.576.284 1.295.535.989.298 1.624.557 1.924.752.284.181.512.424.677.752.154.316.246.703.246 1.147 0 .822-.265 1.48-.787 1.992-.521.5-1.231.761-2.132.761-1.692.001-2.666-.914-2.942-2.77m12.718 1.517c-.396.413-.816.734-1.239.945-.44.191-.882.309-1.345.309-.737 0-1.325-.232-1.759-.664-.438-.457-.658-1.044-.658-1.789 0-.51.109-.935.314-1.332.203-.376.483-.676.841-.88.354-.232.888-.384 1.615-.481.971-.152 1.682-.309 2.134-.51l.011-.376c0-.582-.105-1.005-.319-1.248q-.433-.507-1.362-.505c-.553 0-.975.099-1.248.345-.281.22-.477.654-.606 1.291l-1.174-.212c.167-.919.5-1.564 1.012-1.994q.772-.635 2.193-.635c.731 0 1.315.132 1.736.407.426.279.685.625.807 1.042.11.405.16.997.16 1.786v1.961c0 1.351.022 2.199.08 2.557.043.357.146.695.306 1.032h-1.251c-.127-.286-.209-.652-.248-1.049m-.097-3.264c-.434.214-1.081.386-1.955.561-.491.078-.845.173-1.04.29a1.08 1.08 0 0 0-.471.471 1.44 1.44 0 0 0-.168.678c0 .413.129.74.382 1.005.257.241.601.355 1.049.355.428 0 .817-.096 1.165-.32.35-.23.608-.52.783-.886.173-.368.255-.909.255-1.614zm4.288 4.315v-1.661h1.353v1.661c0 .629-.089 1.151-.284 1.515a1.94 1.94 0 0 1-.82.841l-.333-.627c.247-.144.426-.327.554-.578.123-.263.185-.637.199-1.151zM0 139.846l3.747-11.873h1.379l3.985 11.873H7.634l-1.13-3.593H2.438l-1.067 3.593zm2.814-4.873h3.287l-1.009-3.282a42 42 0 0 1-.684-2.452 17 17 0 0 1-.53 2.257zm7.56 2.306 1.182-.224c.07.6.266 1.054.567 1.344.317.288.738.444 1.256.444.521 0 .913-.138 1.201-.395.286-.245.421-.572.421-.966q.001-.505-.368-.791c-.162-.117-.567-.29-1.207-.481-.931-.304-1.552-.534-1.858-.748a1.8 1.8 0 0 1-.738-.791 2.5 2.5 0 0 1-.252-1.137c0-.742.228-1.342.697-1.786.473-.465 1.124-.683 1.959-.683.516 0 .976.095 1.371.277.398.204.711.442.917.754.208.327.36.771.436 1.369l-1.163.193c-.109-.937-.623-1.389-1.529-1.389-.526 0-.911.084-1.16.298a.95.95 0 0 0-.378.793c0 .314.115.567.357.761.148.104.574.271 1.295.512.989.32 1.632.569 1.926.765.284.168.518.423.676.76.156.319.245.695.245 1.141 0 .82-.267 1.484-.792 1.996q-.775.742-2.123.744c-1.69.001-2.671-.908-2.938-2.76m7.663 0 1.186-.224c.066.6.263 1.054.576 1.344.306.288.724.444 1.244.444.518 0 .917-.138 1.192-.395.294-.245.432-.572.432-.966 0-.337-.115-.6-.358-.791-.17-.117-.576-.29-1.217-.481-.927-.304-1.548-.534-1.862-.748a1.84 1.84 0 0 1-.728-.791 2.4 2.4 0 0 1-.259-1.137c0-.742.236-1.342.703-1.786.473-.465 1.122-.683 1.949-.683.52 0 .984.095 1.385.277.399.204.693.442.906.754.212.327.358.771.438 1.369l-1.171.193c-.107-.937-.617-1.389-1.527-1.389-.508 0-.9.084-1.161.298a.97.97 0 0 0-.372.793.92.92 0 0 0 .364.761c.138.104.573.271 1.291.512.991.32 1.632.569 1.92.765q.44.253.685.76c.152.319.238.695.238 1.141q.001 1.229-.781 1.996-.781.742-2.127.744c-1.696.001-2.677-.908-2.946-2.76m8.119-9.305h1.188v1.68h-1.188zm0 3.291h1.188v8.582h-1.188zm3.441 6.014 1.18-.224c.068.6.261 1.054.58 1.344.304.288.719.444 1.241.444.514 0 .919-.138 1.201-.395.282-.245.425-.572.425-.966q.001-.505-.368-.791c-.165-.117-.567-.29-1.211-.481-.925-.304-1.552-.534-1.862-.748a1.84 1.84 0 0 1-.729-.791 2.6 2.6 0 0 1-.253-1.137c0-.742.232-1.342.701-1.786.469-.465 1.121-.683 1.951-.683.526 0 .98.095 1.385.277.396.204.695.442.906.754.212.327.352.771.434 1.369l-1.162.193c-.111-.937-.623-1.389-1.531-1.389-.516 0-.902.084-1.157.298a.95.95 0 0 0-.378.793c0 .314.117.567.366.761.136.104.573.271 1.291.512.991.32 1.628.569 1.922.765a1.7 1.7 0 0 1 .678.76c.154.319.241.695.241 1.141 0 .82-.257 1.484-.781 1.996q-.785.742-2.131.744c-1.698.001-2.672-.908-2.939-2.76m10.781 1.264.162 1.293a3.5 3.5 0 0 1-.89.125c-.413 0-.752-.086-1.001-.238a1.34 1.34 0 0 1-.522-.678c-.101-.3-.144-.868-.144-1.719v-4.939h-.874v-1.122h.874v-2.142l1.19-.87v3.011h1.205v1.122h-1.205v5.028q0 .695.103.896c.104.195.3.3.575.3a3 3 0 0 0 .527-.067m6.813-1.455 1.226.181c-.2.909-.572 1.593-1.116 2.076-.537.46-1.201.695-1.996.695-.995 0-1.801-.376-2.417-1.139-.621-.756-.934-1.846-.934-3.262 0-1.496.319-2.627.938-3.418.631-.783 1.418-1.155 2.37-1.155.911 0 1.663.372 2.275 1.135.614.774.917 1.883.917 3.342l-.002.376h-5.266c.047.974.277 1.688.672 2.191.403.479.893.734 1.462.734.902-.001 1.518-.591 1.871-1.756m-3.929-2.366h3.93c-.06-.744-.203-1.295-.473-1.663-.393-.539-.874-.789-1.463-.789-.534 0-.995.199-1.371.653-.375.447-.582 1.055-.623 1.799m2.187-5.918-.738 1.381h-1.367l1.435-2.269h1.269l1.49 2.269h-1.344zM50.787 139.846v-8.582h1.082v1.205c.257-.481.573-.826.943-1.059.378-.23.814-.345 1.297-.345.376 0 .731.076 1.048.218.314.146.582.329.775.569.204.263.347.561.44.939.107.403.148.991.148 1.766v5.289h-1.196v-5.221c0-.637-.052-1.091-.165-1.39a1.4 1.4 0 0 0-.501-.676 1.34 1.34 0 0 0-.795-.232c-.576 0-1.034.212-1.377.625q-.5.654-.499 2.204v4.69zm13.048-3.136 1.176.172c-.136 1.013-.469 1.815-1.016 2.345a2.67 2.67 0 0 1-1.955.812c-.919 0-1.688-.376-2.282-1.13-.59-.761-.888-1.873-.888-3.367q-.002-2.245.902-3.369c.594-.744 1.369-1.108 2.316-1.108.726 0 1.338.218 1.842.672.497.455.816 1.131.952 2.045l-1.147.214c-.121-.6-.314-1.022-.601-1.303-.277-.298-.606-.423-1.009-.423-.582 0-1.069.23-1.459.762q-.573.792-.574 2.469c0 1.188.185 2.029.555 2.569.364.512.843.773 1.42.773.454 0 .841-.175 1.153-.532.325-.339.53-.878.615-1.601m3.048-8.728h1.194v1.671h-1.194zm0 3.283h1.194v8.582h-1.194zm8.479 7.529c-.391.405-.813.734-1.244.935-.43.204-.871.311-1.34.311-.731 0-1.326-.224-1.76-.668-.428-.444-.651-1.032-.651-1.782 0-.501.109-.937.307-1.324.201-.376.484-.666.843-.888.355-.222.892-.376 1.619-.481.971-.138 1.684-.304 2.13-.503l.006-.368c0-.598-.099-.993-.306-1.256-.301-.337-.753-.5-1.369-.5q-.835-.001-1.246.327-.414.365-.606 1.303l-1.176-.204c.169-.927.508-1.581 1.02-2.006.5-.416 1.235-.625 2.188-.625.735 0 1.317.131 1.741.403.413.28.688.637.789 1.032.106.417.17 1.003.17 1.807v1.938c0 1.361.029 2.204.078 2.576.048.349.154.688.299 1.025h-1.25c-.119-.279-.203-.658-.242-1.052m-.096-3.252c-.43.214-1.09.374-1.944.56q-.752.104-1.053.281a1.13 1.13 0 0 0-.465.471 1.36 1.36 0 0 0-.168.695c0 .395.129.744.378.982.255.253.612.372 1.055.372a2.06 2.06 0 0 0 1.163-.339c.344-.224.612-.501.783-.879q.252-.55.251-1.622zm9.274 4.304v-10.462h-3.205v-1.401h7.717v1.401h-3.219v10.462zm11.327-2.77 1.229.195c-.199.906-.584 1.599-1.11 2.062-.54.473-1.2.707-1.989.707q-1.504 0-2.428-1.13c-.616-.761-.934-1.854-.934-3.281 0-1.488.321-2.617.936-3.408.636-.773 1.416-1.155 2.376-1.155.902 0 1.665.382 2.275 1.135.608.774.919 1.883.919 3.342l-.002.374h-5.272c.054.977.28 1.69.671 2.191.404.481.892.736 1.461.736q1.347-.003 1.868-1.768m-3.924-2.354h3.931c-.05-.744-.214-1.295-.469-1.663-.387-.539-.884-.789-1.472-.789-.53 0-.985.199-1.365.653-.381.444-.589 1.055-.625 1.799m1.102-4.536.884-2.269h1.559l-1.459 2.269zm11.051 6.524 1.174.172c-.14 1.013-.471 1.815-1.018 2.345a2.67 2.67 0 0 1-1.955.812c-.923 0-1.679-.376-2.277-1.13-.599-.761-.9-1.873-.9-3.367q0-2.245.904-3.369c.603-.744 1.384-1.108 2.318-1.108.734 0 1.347.218 1.84.672.504.455.822 1.131.964 2.045l-1.159.214c-.104-.6-.311-1.022-.594-1.303-.275-.298-.614-.423-1.014-.423-.577 0-1.07.23-1.457.762-.378.528-.573 1.351-.573 2.469 0 1.188.179 2.029.553 2.569.361.512.841.773 1.424.773.444 0 .837-.175 1.153-.532.323-.339.526-.878.617-1.601m3.046 3.136v-8.582h1.073v1.205c.259-.481.577-.826.949-1.059.378-.23.806-.345 1.295-.345.368 0 .722.076 1.044.218.321.146.588.329.779.569.195.263.344.561.438.939q.145.604.144 1.766v5.289h-1.19v-5.221c0-.637-.062-1.091-.171-1.39a1.4 1.4 0 0 0-.503-.676c-.229-.164-.491-.232-.8-.232-.563 0-1.027.212-1.367.625-.335.436-.512 1.17-.512 2.204v4.69zm8.425-11.864h1.194v1.671h-1.194zm0 3.283h1.194v8.582h-1.194zm8.508 5.445 1.176.172c-.143 1.013-.478 1.815-1.02 2.345a2.66 2.66 0 0 1-1.955.812q-1.38 0-2.277-1.13c-.601-.761-.893-1.873-.893-3.367 0-1.498.298-2.619.902-3.369.597-.744 1.373-1.108 2.313-1.108.734 0 1.351.218 1.848.672.502.455.818 1.131.956 2.045l-1.159.214c-.109-.6-.305-1.022-.592-1.303-.273-.298-.613-.423-1.01-.423-.584 0-1.077.23-1.461.762q-.573.792-.571 2.469c0 1.188.179 2.029.549 2.569.365.512.847.773 1.42.773.45 0 .839-.175 1.157-.532.318-.339.526-.878.617-1.601m7.636 2.084c-.391.405-.81.734-1.243.935a3.1 3.1 0 0 1-1.339.311c-.731 0-1.321-.224-1.755-.668-.442-.444-.656-1.032-.656-1.782 0-.501.102-.937.307-1.324a2.36 2.36 0 0 1 .834-.888c.36-.222.907-.376 1.622-.481.979-.138 1.682-.304 2.134-.503l.006-.368c0-.598-.101-.993-.304-1.256-.296-.337-.753-.5-1.369-.5-.551 0-.97.107-1.245.327-.276.243-.483.678-.611 1.303l-1.167-.204c.162-.927.501-1.581 1.007-2.006.51-.416 1.246-.625 2.193-.625.74 0 1.317.131 1.741.403.419.28.688.637.8 1.032.108.417.162 1.003.162 1.807v1.938c0 1.361.017 2.204.08 2.576q.068.522.304 1.025h-1.251c-.127-.279-.201-.658-.25-1.052m-.097-3.252c-.434.214-1.079.374-1.946.56-.493.069-.847.164-1.042.281-.212.105-.366.27-.471.471a1.34 1.34 0 0 0-.169.695c0 .395.125.744.38.982.26.253.611.372 1.047.372.432 0 .822-.109 1.167-.339a2.1 2.1 0 0 0 .785-.879c.169-.366.249-.909.249-1.622zm11.667 1.534 1.229.195c-.202.906-.578 1.599-1.112 2.062q-.808.708-1.99.707-1.506 0-2.434-1.13-.922-1.141-.923-3.281c0-1.488.311-2.617.934-3.408.629-.773 1.42-1.155 2.37-1.155.912 0 1.669.382 2.279 1.135.61.774.915 1.883.915 3.342l-.005.374h-5.26c.039.977.266 1.69.666 2.191.405.481.886.736 1.462.736.889-.001 1.509-.593 1.869-1.768m-3.928-2.354h3.935c-.052-.744-.214-1.295-.48-1.663-.379-.539-.861-.789-1.458-.789-.536 0-.992.199-1.371.653-.381.444-.587 1.055-.626 1.799m10.645 5.124v-11.864h7.034v1.401h-5.749v3.628h5.379v1.4h-5.379v4.025h5.976v1.41zm8.948 0 2.581-4.468-2.391-4.113h1.501l1.079 2.01c.199.364.359.693.493.952.195-.354.383-.674.534-.943l1.185-2.019h1.424l-2.436 4.035 2.627 4.546h-1.466l-1.444-2.666-.381-.732-1.857 3.397h-1.449zm11.104-1.303.166 1.295a3.5 3.5 0 0 1-.888.115c-.415 0-.755-.078-1.009-.224a1.5 1.5 0 0 1-.521-.684c-.086-.296-.136-.868-.136-1.717v-4.941h-.878v-1.122h.878v-2.142l1.186-.87v3.011h1.201v1.122h-1.201v5.036c0 .454.035.754.104.878.104.206.289.31.577.31.134.001.307-.028.521-.067m6.811-1.467 1.231.195c-.206.906-.576 1.599-1.105 2.062-.547.473-1.203.707-2.003.707-.994 0-1.805-.376-2.421-1.13-.627-.761-.93-1.854-.93-3.281 0-1.488.313-2.617.932-3.408.623-.773 1.42-1.155 2.37-1.155.917 0 1.671.382 2.29 1.135.602.774.904 1.883.904 3.342l-.009.374h-5.258c.05.977.275 1.69.675 2.191.398.481.884.736 1.455.736.895-.001 1.522-.593 1.869-1.768m-3.925-2.354h3.935c-.054-.744-.217-1.295-.476-1.663-.382-.539-.867-.789-1.466-.789-.529 0-.992.199-1.368.653-.381.444-.59 1.055-.625 1.799m7.531 5.124v-8.582h1.077v1.205c.261-.481.577-.826.945-1.059.376-.23.813-.345 1.293-.345.383 0 .731.076 1.046.218.325.146.586.329.777.569.201.263.348.561.444.939.103.403.144.991.144 1.766v5.289h-1.2v-5.221c0-.637-.048-1.091-.152-1.39a1.4 1.4 0 0 0-.521-.676c-.22-.164-.484-.232-.785-.232-.573 0-1.027.212-1.368.625-.346.436-.512 1.17-.512 2.204v4.69zm7.975-2.567 1.178-.224c.06.602.263 1.052.571 1.342.316.3.731.446 1.249.446s.919-.14 1.197-.395c.285-.245.436-.572.436-.968a.98.98 0 0 0-.368-.792c-.167-.115-.575-.279-1.211-.479-.925-.304-1.55-.534-1.868-.746a1.9 1.9 0 0 1-.724-.793 2.4 2.4 0 0 1-.261-1.126c0-.752.238-1.353.701-1.796.473-.465 1.117-.683 1.954-.683.521 0 .984.092 1.377.277.399.204.703.444.911.763.205.316.359.763.439 1.361l-1.165.195c-.109-.927-.623-1.391-1.533-1.391-.513 0-.905.084-1.153.296a.97.97 0 0 0-.379.795c0 .314.115.578.362.761.142.104.575.271 1.291.514.988.318 1.632.567 1.92.763.294.183.516.423.687.76.149.319.236.695.236 1.141q0 1.229-.779 1.996-.777.743-2.132.744c-1.698 0-2.669-.917-2.936-2.761m12.715 1.515c-.405.405-.816.734-1.248.935a3.1 3.1 0 0 1-1.34.311c-.738 0-1.319-.224-1.762-.668-.434-.444-.649-1.032-.649-1.782 0-.501.101-.937.302-1.324.208-.376.492-.666.846-.888.355-.222.894-.376 1.617-.481q1.456-.206 2.142-.503l.009-.368c0-.598-.115-.993-.327-1.256-.29-.337-.742-.5-1.36-.5-.562 0-.971.107-1.24.327q-.419.365-.614 1.303l-1.176-.204c.173-.927.502-1.581 1.021-2.006.508-.416 1.241-.625 2.179-.625.746 0 1.328.131 1.75.403.421.28.68.637.799 1.032.104.417.16 1.003.16 1.807v1.938c0 1.361.025 2.204.076 2.576q.074.522.303 1.025h-1.246c-.127-.279-.205-.658-.242-1.052m-.093-3.252c-.439.214-1.096.374-1.954.56-.504.069-.852.164-1.059.281a1.15 1.15 0 0 0-.461.471 1.4 1.4 0 0 0-.164.695c0 .395.129.744.38.982.251.253.603.372 1.051.372.427 0 .813-.109 1.159-.339.348-.224.612-.501.783-.879.168-.366.265-.909.265-1.622zm-3.903-5.356c-.006-.6.119-1.044.389-1.363.257-.339.571-.491.951-.491q.42 0 1.131.455c.251.142.467.222.623.222.14 0 .249-.031.322-.138.076-.084.126-.279.16-.559h.861q-.019.927-.393 1.381c-.242.3-.547.442-.918.442-.266 0-.627-.142-1.088-.442-.298-.187-.514-.288-.651-.288a.43.43 0 0 0-.355.181c-.101.133-.154.337-.154.6zm7.384 5.364q0-2.228.933-3.358c.619-.763 1.408-1.126 2.372-1.126.925 0 1.721.364 2.35 1.126.629.752.949 1.833.949 3.272 0 1.534-.31 2.685-.938 3.445q-.932 1.13-2.36 1.13-1.425 0-2.359-1.13c-.638-.761-.947-1.872-.947-3.359m1.217 0c0 1.102.201 1.94.602 2.489.405.524.917.804 1.511.804.562 0 1.045-.28 1.443-.82.411-.543.61-1.371.61-2.473 0-1.098-.203-1.932-.61-2.471-.405-.541-.912-.81-1.511-.81-.56 0-1.042.269-1.449.82-.395.529-.596 1.364-.596 2.461m10.729 4.296v-11.864h4.318c.9 0 1.563.106 1.992.339.425.204.778.59 1.052 1.102.28.512.411 1.108.411 1.782 0 .911-.226 1.634-.696 2.183-.467.561-1.153.918-2.035 1.064.361.218.637.444.824.654.387.464.726.956 1.009 1.515l1.704 3.225h-1.624l-1.29-2.462c-.493-.964-.88-1.622-1.131-1.969-.261-.317-.506-.541-.752-.656-.237-.123-.576-.183-1.003-.183h-1.482v5.27zm1.297-6.622h2.754c.608 0 1.063-.068 1.382-.23a1.6 1.6 0 0 0 .744-.676 2.1 2.1 0 0 0 .277-1.092c0-.617-.181-1.091-.53-1.418-.344-.346-.869-.512-1.557-.512h-3.07zm13.831 6.622v-1.264a3 3 0 0 1-.977 1.09c-.361.252-.78.368-1.251.368a2.38 2.38 0 0 1-1.431-.444 2.1 2.1 0 0 1-.781-1.147c-.134-.457-.204-1.065-.204-1.867v-5.317h1.188v4.75c0 .888.037 1.476.136 1.776.084.308.244.549.491.733.24.173.51.27.82.27.575 0 1.044-.24 1.407-.707.317-.403.469-1.155.469-2.236v-4.586h1.199v8.582h-1.066zm3.807 0v-8.582h1.073v1.274c.281-.59.53-.993.756-1.196q.357-.277.783-.277c.391 0 .802.16 1.211.452l-.4 1.361q-.441-.319-.863-.319a1 1 0 0 0-.697.28c-.207.172-.361.423-.452.731a7 7 0 0 0-.222 1.776v4.5zm9.99-1.052c-.399.405-.814.734-1.242.935a3.1 3.1 0 0 1-1.349.311q-1.098-.001-1.757-.668c-.434-.444-.651-1.032-.651-1.782 0-.501.097-.937.304-1.324.208-.376.493-.666.841-.888.364-.222.902-.376 1.628-.481q1.442-.206 2.136-.503l.004-.368c0-.598-.106-.993-.316-1.256-.29-.337-.748-.5-1.369-.5q-.83-.001-1.243.327-.41.365-.608 1.303l-1.176-.204c.173-.927.504-1.581 1.021-2.006.502-.416 1.241-.625 2.181-.625.744 0 1.326.131 1.743.403.426.28.687.637.8 1.032.113.417.162 1.003.162 1.807v1.938c0 1.361.033 2.204.08 2.576.046.349.15.688.3 1.025h-1.245c-.123-.279-.203-.658-.244-1.052m-.091-3.252c-.441.214-1.092.374-1.957.56-.495.069-.853.164-1.052.281-.2.105-.352.27-.461.471a1.43 1.43 0 0 0-.169.695c0 .395.13.744.379.982.251.253.606.372 1.05.372.424 0 .818-.109 1.164-.339.352-.224.612-.501.783-.879.172-.366.263-.909.263-1.622zm3.891-7.56h1.188v11.864h-1.188z" clip-rule="evenodd"/></svg>